<svg width="37" height="34" viewBox="0 0 37 34" fill="none" xmlns="http://www.w3.org/2000/svg">
<path d="M29.1631 10.4724L27.0305 8.22961C27.0305 8.22961 27.4293 8.13211 27.8655 8.07763C28.3416 8.02006 28.868 8.01286 28.988 8.23724C29.0678 8.38962 29.1116 8.71165 29.136 9.06439C29.1792 9.71187 29.1589 10.4686 29.1589 10.4686L29.1631 10.4724Z" fill="url(#paint0_linear_31_25300)"/>
<g style="mix-blend-mode:multiply" opacity="0.75">
<path fill-rule="evenodd" clip-rule="evenodd" d="M29.1634 10.4729L27.0308 8.23007C27.0308 8.23007 27.4296 8.13258 27.8658 8.07809C27.9279 8.23184 28.053 8.4433 28.3382 8.71753C28.5939 8.96482 28.8854 9.04664 29.1363 9.06485C29.1795 9.71234 29.1592 10.469 29.1592 10.469L29.1634 10.4729Z" fill="#C77FBF"/>
</g>
<path d="M16.9313 6.86773C16.9313 6.86773 19.3831 4.1806 20.7056 4.42736C22.0281 4.67412 24.8317 5.48055 28.435 9.25155C32.0383 13.0226 33.4833 15.9149 32.8873 17.3528C32.2914 18.7907 27.9086 22.8461 21.4671 25.0361C15.0257 27.226 16.9327 6.86678 16.9327 6.86678L16.9313 6.86773Z" fill="#BCFF4F"/>
<path d="M19.3198 26.1215C19.2487 26.1534 19.1777 26.1853 19.1066 26.2171C14.2347 28.4202 9.66994 29.8895 8.62229 29.275C8.03911 28.9339 4.35628 23.0317 4.32762 22.6489C4.25591 21.7095 7.85391 16.8238 11.6112 12.4618C12.0248 11.9796 12.4417 11.5059 12.8546 11.0453C12.8864 11.0107 12.9166 10.9736 12.9484 10.9389C13.5518 10.2636 14.1504 9.61961 14.7265 9.01826C14.8047 8.93605 14.8597 8.87934 14.8887 8.85003C14.896 8.84528 14.9016 8.83461 14.9089 8.82643C16.208 7.48655 17.3874 6.3966 18.2748 5.77704C18.4523 5.65175 18.6185 5.5478 18.7704 5.46365C24.0257 2.54803 32.8924 13.5473 32.6026 16.8221C32.4972 18.0097 30.699 19.6512 28.1255 21.3539C25.6372 23.0014 22.4277 24.707 19.3213 26.1205L19.3198 26.1215Z" fill="url(#paint1_linear_31_25300)"/>
<path style="mix-blend-mode:multiply" opacity="0.5" d="M27.5435 8.93011C27.5435 8.93011 24.4073 6.2652 19.2648 9.28747C14.1237 12.3088 6.02043 24.7192 6.02043 24.7192C6.02043 24.7192 19.6763 9.5952 27.5435 8.93011Z" fill="url(#paint2_linear_31_25300)"/>
<path style="mix-blend-mode:multiply" opacity="0.5" d="M28.6375 10.3703C28.6058 10.5985 29.2113 13.7591 24.7352 17.7445C20.2593 21.7333 7.5374 27.0617 7.5374 27.0617C7.5374 27.0617 24.4136 22.6592 27.5456 19.2963C30.6746 15.932 28.639 10.3693 28.639 10.3693L28.6375 10.3703Z" fill="url(#paint3_linear_31_25300)"/>
<g style="mix-blend-mode:screen" opacity="0.5">
<path d="M24.1848 7.31054C24.3269 7.20806 25.9883 8.55588 26.4355 8.58354C26.8844 8.61369 28.3669 9.1724 29.2505 10.6324C30.1356 12.0948 30.0474 17.9218 29.3255 17.5789C28.6035 17.2359 22.0545 8.82521 24.1832 7.30806L24.1848 7.31054Z" fill="#525300"/>
</g>
<g style="mix-blend-mode:screen" opacity="0.5">
<path d="M26.096 8.94746C26.3367 8.70732 28.6528 9.53328 29.232 10.8837C29.8113 12.2341 30.0489 14.5518 28.9743 14.2469C27.8997 13.9419 24.5874 10.4404 26.0975 8.94651L26.096 8.94746Z" fill="#525300"/>
</g>
<path style="mix-blend-mode:multiply" d="M14.9101 8.8289C14.9101 8.8289 14.8998 8.83555 14.8883 8.85002C14.8957 8.84527 14.9013 8.8346 14.9085 8.82642L14.9101 8.8289Z" fill="url(#paint4_linear_31_25300)"/>
<path style="mix-blend-mode:multiply" d="M19.3197 26.1219C14.3684 28.3763 9.68676 29.9001 8.62213 29.2754C8.03895 28.9343 4.35613 23.0321 4.32746 22.6493C4.24715 21.6064 8.69255 15.6975 12.8543 11.0423C10.0943 14.1681 5.64551 19.8397 6.60955 22.9586C7.85901 27.0088 15.0487 27.4718 19.3195 26.1185L19.3197 26.1219Z" fill="url(#paint5_linear_31_25300)"/>
<g style="mix-blend-mode:screen" opacity="0.5">
<path d="M17.8493 17.0713C16.8638 16.0434 15.1288 16.9961 12.2015 19.1283C9.2772 21.262 8.55752 25.1033 9.8041 25.2971C11.0507 25.4909 21.0386 20.3953 17.8493 17.0713Z" fill="#525300"/>
</g>
<g style="mix-blend-mode:screen" opacity="0.5">
<path d="M13.7227 13.7194C13.3422 12.8248 10.4856 14.5345 9.30854 16.2179C8.13146 17.9013 7.80153 20.9626 8.33451 20.6039C8.86749 20.2452 13.8689 14.0649 13.7227 13.7194Z" fill="#525300"/>
</g>
<g style="mix-blend-mode:screen" opacity="0.5">
<path d="M19.8638 23.7139C19.9575 23.1851 13.957 25.8186 14.1007 26.1376C14.2459 26.4556 19.3893 26.4357 19.8638 23.7139Z" fill="#525300"/>
</g>
<g style="mix-blend-mode:screen" opacity="0.5">
<path d="M18.0853 18.0522C17.5423 17.3542 14.4576 19.5493 15.0687 20.8264C15.6797 22.1035 18.9234 19.1261 18.0853 18.0522Z" fill="#525300"/>
</g>
<g style="mix-blend-mode:screen" opacity="0.5">
<path d="M14.2957 21.5233C13.8152 20.9187 13.288 21.9988 13.5767 22.21C13.8654 22.4211 14.6208 21.9327 14.2957 21.5233Z" fill="#525300"/>
</g>
<g style="mix-blend-mode:multiply" opacity="0.2">
<path d="M7.9966 18.1118C7.38392 17.0611 4.40047 21.6691 4.75589 23.0376C5.10983 24.407 8.15878 28.8356 8.63229 29.0329C9.1058 29.2301 8.93729 19.7214 7.995 18.1093L7.9966 18.1118Z" fill="#405A6B"/>
</g>
<g style="mix-blend-mode:multiply" opacity="0.2">
<path d="M11.6111 12.462C12.0247 11.9798 12.4416 11.5061 12.8545 11.0455C12.8863 11.0109 12.9165 10.9737 12.9483 10.9391C13.5517 10.2638 14.1502 9.61979 14.7264 9.01844C14.8046 8.93623 14.8596 8.87952 14.8886 8.85021C14.8959 8.84546 14.9015 8.8348 14.9088 8.82661C16.2079 7.48673 17.3873 6.39678 18.2747 5.77722C18.063 5.98806 16.1062 7.96439 15.5756 9.22623C15.1787 10.1693 12.9043 11.6963 11.6111 12.462Z" fill="#405A6B"/>
</g>
<g style="mix-blend-mode:multiply" opacity="0.2">
<path d="M19.3199 26.1217C19.2488 26.1535 19.1777 26.1854 19.1067 26.2173C20.1181 25.4542 23.0035 23.5217 24.0658 23.0918C25.2349 22.6211 27.6053 21.6165 28.1195 21.3544C25.6342 23.0001 22.4247 24.7056 19.3168 26.1201L19.3199 26.1217Z" fill="#405A6B"/>
</g>
<g style="mix-blend-mode:multiply" opacity="0.5">
<path fill-rule="evenodd" clip-rule="evenodd" d="M26.0956 13.1997C26.0715 13.1772 24.2475 12.4198 23.897 13.486C23.5498 14.55 24.8556 17.1498 25.8897 16.6195C26.9239 16.0892 27.0118 14.0145 26.0956 13.1997Z" fill="#405A6B"/>
</g>
<path d="M25.7054 16.4956C24.7788 16.4651 23.7258 14.5796 24.0476 13.7848C24.2461 13.2986 24.9969 13.1233 25.6335 13.1458C25.6369 13.1436 25.6424 13.1448 25.6479 13.146C26.0409 13.159 26.3909 13.2523 26.5377 13.3912C27.1081 13.943 27.1705 14.6563 26.9817 15.2602C26.9817 15.2602 26.9817 15.2602 26.9783 15.2624C26.7585 15.9579 26.2026 16.5081 25.7066 16.4901L25.7054 16.4956Z" fill="url(#paint6_linear_31_25300)"/>
<g style="mix-blend-mode:multiply" opacity="0.75">
<path fill-rule="evenodd" clip-rule="evenodd" d="M25.7054 16.4956C24.7788 16.4651 23.7258 14.5795 24.0476 13.7847C24.2462 13.2986 24.997 13.1232 25.6335 13.1457C25.4896 13.1434 24.3202 13.2221 24.2349 14.0596C24.1459 14.9281 25.328 16.3819 26.0107 16.1599C26.6623 15.9485 26.9499 15.3284 26.9772 15.2679C26.7573 15.9633 26.2014 16.5136 25.7054 16.4956Z" fill="#C77FBF"/>
</g>
<g style="mix-blend-mode:screen" opacity="0.5">
<path fill-rule="evenodd" clip-rule="evenodd" d="M26.1563 14.4245C25.9351 14.2146 24.8368 14.3666 25.4177 15.0595C25.9987 15.7523 26.7411 14.9765 26.1563 14.4245Z" fill="#BDBF00"/>
</g>
<g style="mix-blend-mode:multiply" opacity="0.5">
<path fill-rule="evenodd" clip-rule="evenodd" d="M17.542 6.84177C17.542 6.84177 18.0845 6.57975 18.1151 6.94212C18.1457 7.3045 18.033 8.35933 17.2128 9.02329C16.3926 9.68725 15.187 10.1254 15.3986 9.39637C15.6102 8.66738 17.542 6.84177 17.542 6.84177Z" fill="#405A6B"/>
</g>
<path d="M15.6617 9.35762C15.0813 9.04662 15.2362 6.9658 15.7841 6.49364C15.8141 6.46823 15.8452 6.44667 15.8786 6.43281C16.3107 6.21956 17.1414 6.59131 17.6057 6.83175C17.8075 6.93997 17.9394 7.02258 17.9394 7.02258C18.1651 7.94149 16.2767 9.68775 15.6639 9.36531L15.6617 9.35762Z" fill="url(#paint7_linear_31_25300)"/>
<g style="mix-blend-mode:multiply" opacity="0.75">
<path fill-rule="evenodd" clip-rule="evenodd" d="M15.6612 9.35762C15.0808 9.04662 15.2358 6.9658 15.7837 6.49364C15.7716 6.58059 15.4288 9.05809 16.3674 8.50153C17.3229 7.93172 17.863 7.33252 17.6053 6.83175C17.807 6.93998 17.939 7.02258 17.939 7.02258C18.1646 7.9415 16.2763 9.68775 15.6634 9.36531L15.6612 9.35762Z" fill="#C77FBF"/>
</g>
<g style="mix-blend-mode:screen" opacity="0.5">
<path fill-rule="evenodd" clip-rule="evenodd" d="M15.906 6.49986C15.7967 6.55249 16.7572 7.29948 16.8786 6.98884C17.0001 6.67819 16.638 6.13268 15.906 6.49986Z" fill="#BDBF00"/>
</g>
<g style="mix-blend-mode:multiply" opacity="0.5">
<path fill-rule="evenodd" clip-rule="evenodd" d="M21.052 5.3877C20.9887 5.42855 20.3089 5.28085 20.2612 5.61395C20.2136 5.94706 20.4986 6.73268 22.5077 7.62887C24.5168 8.52505 25.2053 8.09176 24.5734 7.3145C23.9415 6.53323 21.0559 5.38765 21.0559 5.38765L21.052 5.3877Z" fill="#405A6B"/>
</g>
<g style="mix-blend-mode:multiply" opacity="0.5">
<path fill-rule="evenodd" clip-rule="evenodd" d="M31.0075 14.3795C30.931 14.2659 30.5827 13.3138 30.274 13.5582C29.9653 13.8025 29.7296 14.3859 30.2405 16.078C30.7501 17.7663 31.4415 18.7119 31.7027 18.1538C31.9588 17.5931 31.0087 14.3833 31.0087 14.3833L31.0075 14.3795Z" fill="#405A6B"/>
</g>
<path d="M31.4222 17.8726C30.8814 17.557 29.8514 15.03 30.3639 13.9466C30.3639 13.9466 31.7487 13.8829 32.8539 14.0874C32.8855 14.0937 32.9171 14.0999 32.9436 14.1036C33.0611 14.1271 33.1785 14.1507 33.2873 14.1858C33.7107 14.3044 34.0386 14.4765 34.1463 14.7319C34.4218 15.3702 33.3183 16.7344 32.4097 17.4446C31.9805 17.7805 31.5957 17.9745 31.4222 17.8726Z" fill="url(#paint8_linear_31_25300)"/>
<path d="M20.6645 5.65661C20.668 5.62051 21.3645 4.87465 22.124 4.38438C22.658 4.04116 23.2255 3.82171 23.6112 4.04923C24.3465 4.48468 24.7155 6.24273 24.6634 7.18082C24.6469 7.44943 24.5976 7.65036 24.5149 7.73552C24.1329 8.1209 20.4187 7.04581 20.6605 5.65266L20.6645 5.65661Z" fill="url(#paint9_linear_31_25300)"/>
<g style="mix-blend-mode:multiply" opacity="0.75">
<path fill-rule="evenodd" clip-rule="evenodd" d="M20.6647 5.6568C20.6682 5.6207 21.3647 4.87484 22.1242 4.38457C21.6781 4.74271 21.2949 5.35244 21.7535 6.30014C22.5806 8.01639 24.5285 7.53524 24.6677 7.18496C24.6511 7.45358 24.6018 7.6545 24.5191 7.73967C24.1371 8.12505 20.423 7.04996 20.6647 5.6568Z" fill="#C77FBF"/>
</g>
<g style="mix-blend-mode:multiply" opacity="0.75">
<path fill-rule="evenodd" clip-rule="evenodd" d="M31.4217 17.8724C30.8809 17.5567 29.8509 15.0297 30.3634 13.9464C30.3634 13.9464 31.7482 13.8826 32.8534 14.0872C32.2572 13.9806 31.2238 13.9506 30.8525 15.0156C30.3301 16.5042 31.4946 17.8265 32.4104 17.4481C31.9813 17.784 31.5965 17.978 31.423 17.8762L31.4217 17.8724Z" fill="#C77FBF"/>
</g>
<g style="mix-blend-mode:screen" opacity="0.5">
<path fill-rule="evenodd" clip-rule="evenodd" d="M23.1963 4.05445C22.5763 3.91 22.6414 4.96279 22.913 5.63641C23.1847 6.31003 24.2576 6.96158 24.3237 6.18757C24.3937 5.41351 24.4481 4.3432 23.1923 4.0545L23.1963 4.05445Z" fill="#BDBF00"/>
</g>
<g style="mix-blend-mode:screen" opacity="0.5">
<path fill-rule="evenodd" clip-rule="evenodd" d="M34.0375 14.7849C33.8189 14.5376 32.7592 15.1002 32.6951 15.7057C32.6311 16.3111 32.9515 16.6847 33.1829 16.585C33.4182 16.484 34.3477 15.1407 34.0375 14.7849Z" fill="#BDBF00"/>
</g>
<defs>
<linearGradient id="paint0_linear_31_25300" x1="29.7501" y1="8.75422" x2="26.8182" y2="9.56734" gradientUnits="userSpaceOnUse">
<stop stop-color="#FFD52E"/>
<stop offset="1" stop-color="#FF8000"/>
</linearGradient>
<linearGradient id="paint1_linear_31_25300" x1="4.57602" y1="26.2339" x2="29.4371" y2="9.86943" gradientUnits="userSpaceOnUse">
<stop stop-color="#00664B"/>
<stop offset="0.2" stop-color="#0A7D40"/>
<stop offset="0.74" stop-color="#26BB26"/>
<stop offset="1" stop-color="#31D41C"/>
</linearGradient>
<linearGradient id="paint2_linear_31_25300" x1="23.0539" y1="9.32295" x2="2.39819" y2="23.7445" gradientUnits="userSpaceOnUse">
<stop stop-color="white"/>
<stop offset="1" stop-color="#3F79BF"/>
</linearGradient>
<linearGradient id="paint3_linear_31_25300" x1="29.1627" y1="14.2481" x2="8.36757" y2="27.6209" gradientUnits="userSpaceOnUse">
<stop stop-color="white"/>
<stop offset="1" stop-color="#3F79BF"/>
</linearGradient>
<linearGradient id="paint4_linear_31_25300" x1="14.8984" y1="8.8365" x2="14.9016" y2="8.84147" gradientUnits="userSpaceOnUse">
<stop stop-color="#EEDBFE"/>
<stop offset="0.28" stop-color="#EDD8FB"/>
<stop offset="0.47" stop-color="#ECCFF5"/>
<stop offset="0.62" stop-color="#E9C0E9"/>
<stop offset="0.77" stop-color="#E5AAD9"/>
<stop offset="0.9" stop-color="#E18FC4"/>
<stop offset="1" stop-color="#DD76B1"/>
</linearGradient>
<linearGradient id="paint5_linear_31_25300" x1="22.1937" y1="14.1531" x2="-1.8686" y2="30.3631" gradientUnits="userSpaceOnUse">
<stop stop-color="#EEDBFE"/>
<stop offset="0.28" stop-color="#EDD8FB"/>
<stop offset="0.47" stop-color="#ECCFF5"/>
<stop offset="0.62" stop-color="#E9C0E9"/>
<stop offset="0.77" stop-color="#E5AAD9"/>
<stop offset="0.9" stop-color="#E18FC4"/>
<stop offset="1" stop-color="#DD76B1"/>
</linearGradient>
<linearGradient id="paint6_linear_31_25300" x1="27.1566" y1="12.6666" x2="23.9469" y2="16.478" gradientUnits="userSpaceOnUse">
<stop stop-color="#FFD52E"/>
<stop offset="1" stop-color="#FF8000"/>
</linearGradient>
<linearGradient id="paint7_linear_31_25300" x1="18.5938" y1="6.20242" x2="14.2505" y2="9.0454" gradientUnits="userSpaceOnUse">
<stop stop-color="#FFD52E"/>
<stop offset="1" stop-color="#FF8000"/>
</linearGradient>
<linearGradient id="paint8_linear_31_25300" x1="34.6892" y1="13.304" x2="29.3386" y2="17.158" gradientUnits="userSpaceOnUse">
<stop stop-color="#FFD52E"/>
<stop offset="1" stop-color="#FF8000"/>
</linearGradient>
<linearGradient id="paint9_linear_31_25300" x1="25.5966" y1="5.27421" x2="19.8686" y2="7.10601" gradientUnits="userSpaceOnUse">
<stop stop-color="#FFD52E"/>
<stop offset="1" stop-color="#FF8000"/>
</linearGradient>
</defs>
</svg>
