<svg width="76" height="80" viewBox="0 0 76 80" fill="none" xmlns="http://www.w3.org/2000/svg">
<g clip-path="url(#clip0_31_24635)">
<path d="M7.55688 29.921L4.90127 32.262C4.90127 32.262 4.82763 31.8543 4.80462 31.4053C4.78161 30.9151 4.81843 30.3699 5.07616 30.2325C5.25106 30.1409 5.61005 30.0767 6.00125 30.0309C6.71923 29.9485 7.55227 29.9255 7.55227 29.9255L7.55688 29.921Z" fill="url(#paint0_linear_31_24635)"/>
<g style="mix-blend-mode:multiply" opacity="0.75">
<path fill-rule="evenodd" clip-rule="evenodd" d="M7.55694 29.921L4.90134 32.262C4.90134 32.262 4.8277 31.8543 4.80469 31.4053C4.97958 31.332 5.22351 31.19 5.55028 30.8785C5.84484 30.599 5.9599 30.2921 6.00132 30.0309C6.7193 29.9485 7.55234 29.9255 7.55234 29.9255L7.55694 29.921Z" fill="#C77FBF"/>
</g>
<path d="M2.89508 46.1711C2.89508 46.1711 0.138224 42.9595 0.22567 40.5177C0.317719 38.0712 6.35151 29.1879 9.09916 26.714C11.8468 24.24 14.7095 22.6228 16.6241 26.2788C18.5388 29.9347 22.9755 46.7071 26.2202 48.054C29.4649 49.401 31.49 46.927 31.49 46.927C31.49 46.927 30.8549 51.2564 30.8457 51.2564C30.8365 51.2564 2.89048 46.1711 2.89048 46.1711H2.89508Z" fill="#BCFF4F"/>
<path d="M36.6811 51.7558C36.6811 51.7558 36.543 52.0124 36.2991 52.4476C35.8527 53.2448 35.0472 54.6512 34.0853 56.1723C32.341 58.9348 30.0858 62.0731 28.521 62.6687C25.6306 63.7682 -1.38565 48.3748 0.906366 40.2566C1.29297 38.8867 1.86367 37.4894 2.55864 36.1196C5.99206 29.3666 12.4907 23.3604 15.1785 25.5412C18.0642 27.8868 21.4977 45.5206 26.3854 48.4893C26.9654 48.8421 27.5591 48.9887 28.1804 48.8787C34.0393 47.8616 34.9782 45.2411 35.1485 45.4977C35.2635 45.6717 35.9355 48.5397 36.3497 50.331C36.4602 50.8121 36.5522 51.2152 36.6121 51.4672C36.6535 51.6504 36.6765 51.7558 36.6765 51.7558H36.6811Z" fill="url(#paint1_linear_31_24635)"/>
<g style="mix-blend-mode:multiply" opacity="0.2">
<path d="M18.5613 57.1572C18.1977 59.2005 25.557 62.6136 28.6177 61.7752C31.6783 60.9323 32.249 55.6316 31.5034 53.9136C30.7578 52.2002 26.7721 50.8212 25.2855 51.0548C23.7989 51.2885 18.7638 56.0119 18.5613 57.1572Z" fill="#405A6B"/>
</g>
<path style="mix-blend-mode:multiply" opacity="0.5" d="M13.6828 30.6265C13.6828 30.8602 16.3845 54.4039 25.755 55.1231C35.1256 55.8424 35.1624 46.1711 35.1624 46.1711C35.1624 46.1711 32.0327 54.8116 26.2383 53.9549C16.9137 52.5759 13.6782 30.6265 13.6782 30.6265H13.6828Z" fill="url(#paint2_linear_31_24635)"/>
<path style="mix-blend-mode:multiply" opacity="0.5" d="M36.6812 51.7558C36.6812 51.7558 36.5431 52.0124 36.2992 52.4476C35.8527 53.2448 35.0473 54.6513 34.0854 56.1723C31.9729 58.6691 29.3311 60.0985 26.0265 59.7687C9.78913 58.1469 4.16956 38.2637 3.875 37.2787C4.20177 38.195 10.6268 55.6546 25.9851 57.7529C30.7946 58.408 34.205 55.7141 36.6167 51.4764C36.6581 51.6596 36.6812 51.765 36.6812 51.765V51.7558Z" fill="url(#paint3_linear_31_24635)"/>
<path style="mix-blend-mode:multiply" d="M36.3546 50.331L36.2994 52.4476C35.0383 54.7016 30.9467 61.7432 28.5259 62.6686C25.6355 63.7682 -1.38076 48.3748 0.911249 40.2566C1.29785 38.8867 1.86856 37.4894 2.56352 36.1196C2.19073 39.2303 2.16311 48.3473 13.2872 54.2435C25.0648 60.4833 27.9367 53.3043 26.3903 48.4939C26.9702 48.8466 27.5639 48.9932 28.1853 48.8833C34.0442 47.8662 34.9831 45.2457 35.1534 45.5022C35.2684 45.6763 35.9404 48.5443 36.3546 50.3356V50.331Z" fill="url(#paint4_linear_31_24635)"/>
<path d="M63.7574 13.8403C63.716 13.8266 63.7021 13.2356 63.7528 12.6446C63.8034 12.0948 63.9046 11.5405 64.1072 11.4305C64.3281 11.3114 65.2762 11.2473 66.1552 11.2473C66.9515 11.2473 67.6878 11.3068 67.7891 11.4305C68.0054 11.6871 64.8067 14.2206 63.7574 13.8403Z" fill="url(#paint5_linear_31_24635)"/>
<g style="mix-blend-mode:multiply" opacity="0.75">
<path fill-rule="evenodd" clip-rule="evenodd" d="M63.7574 13.8403C63.716 13.8266 63.7021 13.2356 63.7528 12.6446C63.9415 12.727 64.3143 12.695 65.0875 12.2185C65.6996 11.8382 66.0034 11.5038 66.1598 11.2518C66.9561 11.2518 67.6925 11.3114 67.7937 11.4351C68.01 11.6916 64.8113 14.2251 63.762 13.8449L63.7574 13.8403Z" fill="#C77FBF"/>
</g>
<path d="M74.7203 19.8969C74.1036 20.6437 73.4593 21.2255 73.3166 20.9873C72.9944 20.465 73.3166 16.8503 74.0254 16.58C74.0254 16.58 74.9182 16.9328 75.5258 17.2947C75.7052 17.4001 75.8571 17.51 75.9538 17.6108C76.1839 17.8491 75.4705 18.999 74.7203 19.9015V19.8969Z" fill="url(#paint6_linear_31_24635)"/>
<g style="mix-blend-mode:multiply" opacity="0.75">
<path fill-rule="evenodd" clip-rule="evenodd" d="M74.7203 19.8969C74.1036 20.6437 73.4593 21.2255 73.3166 20.9873C72.9944 20.465 73.3166 16.8503 74.0254 16.58C74.0254 16.58 74.9182 16.9328 75.5258 17.2947C75.4015 17.3222 73.7354 17.3085 74.3659 19.3701C74.458 19.6679 74.5776 19.8282 74.7249 19.8969H74.7203Z" fill="#C77FBF"/>
</g>
<path d="M62.3032 15.1643C62.3032 15.1643 70.1734 6.66587 73.6758 10.4593C77.1783 14.2481 71.9269 26.6727 71.9269 26.6727L62.3032 15.1643Z" fill="#BCFF4F"/>
<path d="M61.47 45.5618C58.2161 45.8596 51.3032 37.0221 51.3032 37.0221L53.2086 32.4545C53.2086 32.4545 57.1345 33.6777 58.5889 31.9643C59.0491 31.4237 59.3483 30.1501 59.5508 28.5924C59.9834 25.2388 59.965 20.5796 60.1537 19.0677C60.6231 15.3568 67.5728 9.68047 71.7472 10.331C72.143 10.3906 72.5158 10.5097 72.8564 10.6929C78.6969 13.8495 66.6293 45.0945 61.4746 45.5618H61.47Z" fill="url(#paint7_linear_31_24635)"/>
<g style="mix-blend-mode:multiply" opacity="0.2">
<path d="M53.5495 37.9613C52.4403 38.9142 57.9218 44.6638 60.6234 44.6226C63.3251 44.5768 66.3949 39.9908 66.0083 39.0241C65.6217 38.0529 55.4641 36.3211 53.5495 37.9658V37.9613Z" fill="#405A6B"/>
</g>
<path style="mix-blend-mode:multiply" opacity="0.5" d="M54.0464 34.1312C54.0464 34.1312 57.3279 40.2016 60.6693 36.1104C64.0107 32.0192 62.027 18.3438 62.027 18.3438C62.027 18.3438 62.4873 34.397 58.7363 35.2949C54.9899 36.1929 54.0464 34.1267 54.0464 34.1267V34.1312Z" fill="url(#paint8_linear_31_24635)"/>
<path style="mix-blend-mode:multiply" opacity="0.5" d="M52.486 36.0463C52.486 36.0463 57.024 44.4897 62.3813 42.4281C67.7431 40.3665 72.1108 20.4971 72.1108 20.4971C72.1108 20.4971 67.3703 38.4148 61.0742 40.142C56.0023 41.5302 52.4814 36.0463 52.4814 36.0463H52.486Z" fill="url(#paint9_linear_31_24635)"/>
<path style="mix-blend-mode:multiply" d="M61.47 45.5618C58.2161 45.8596 51.3032 37.0221 51.3032 37.0221L53.2086 32.4545C53.2086 32.4545 57.1345 33.6777 58.5889 31.9643C59.0491 31.4237 59.3483 30.15 59.5508 28.5924C59.4771 38.3965 63.9047 44.3019 69.5841 32.0192C75.2589 19.732 71.7472 10.331 71.7472 10.331C72.143 10.3906 72.5158 10.5097 72.8564 10.6929C78.6969 13.8495 66.6293 45.0945 61.4746 45.5618H61.47Z" fill="url(#paint10_linear_31_24635)"/>
<path d="M26.7999 29.3941C26.7999 29.3941 25.3594 20.1856 26.7999 17.6292C28.2405 15.0728 31.6647 10.0561 39.6407 7.49515C47.6167 4.93416 52.6196 5.86876 53.9957 9.22233C55.3718 12.5759 56.9689 27.9739 54.3869 45.2457C51.8049 62.5175 26.7999 29.3896 26.7999 29.3896V29.3941Z" fill="#BCFF4F"/>
<path d="M53.9911 51.5084C53.9727 51.71 53.9543 51.9116 53.9359 52.1132C52.6978 65.9535 50.7602 78.0758 49.0711 79.5052C48.1322 80.3024 37.3027 80.0092 36.778 79.5281C35.4893 78.3507 32.1434 63.4979 29.6166 49.0391C29.3359 47.4447 29.0689 45.855 28.8158 44.2928C28.7974 44.1736 28.7744 44.0545 28.756 43.9354C28.3832 41.6493 28.0472 39.4182 27.748 37.297C27.7066 37.0084 27.679 36.8068 27.6652 36.7014C27.6652 36.6785 27.656 36.651 27.6514 36.6235C26.9978 31.8635 26.5698 27.7219 26.51 24.8906C26.4962 24.3225 26.5008 23.8094 26.5192 23.3559C27.1497 7.66006 49.0251 3.80254 53.0614 9.09403C54.525 11.0136 55.1509 17.2993 55.2016 25.3762C55.2522 33.1875 54.7689 42.6664 53.9911 51.5038V51.5084Z" fill="url(#paint11_linear_31_24635)"/>
<g style="mix-blend-mode:multiply" opacity="0.5">
<path d="M27.9183 18.5271C27.6191 18.8295 27.4856 19.3197 27.6881 19.5029C27.8907 19.6862 30.7442 18.8982 31.927 17.3313C33.1098 15.7691 33.0914 14.1198 31.9086 14.7933C30.7258 15.4667 27.9137 18.5271 27.9137 18.5271H27.9183Z" fill="#405A6B"/>
</g>
<g style="mix-blend-mode:multiply" opacity="0.5">
<path d="M31.927 12.6583C31.5404 12.8782 31.1492 13.0798 31.5036 13.5059C31.8579 13.932 33.837 13.5975 35.3742 12.2689C36.9114 10.9403 36.7411 9.68044 35.5951 10.4043C34.4445 11.1282 31.927 12.6583 31.927 12.6583Z" fill="#405A6B"/>
</g>
<g style="mix-blend-mode:multiply" opacity="0.5">
<path d="M45.61 7.4997C45.2372 7.55009 44.2523 7.40807 44.5883 7.88453C44.9243 8.36558 46.1853 9.18564 47.833 9.2223C49.4807 9.25437 51.3493 8.5809 50.6865 8.17774C50.0284 7.77458 45.61 7.49512 45.61 7.49512V7.4997Z" fill="#405A6B"/>
</g>
<g style="mix-blend-mode:multiply" opacity="0.5">
<path d="M50.4886 10.8991C49.9363 10.7983 49.315 10.6425 49.2367 11.1098C49.1585 11.5817 50.2861 13.231 51.8601 14.1931C53.4388 15.1552 54.4973 15.3659 54.3731 14.7291C54.2488 14.0923 50.4886 10.8991 50.4886 10.8991Z" fill="#405A6B"/>
</g>
<path style="mix-blend-mode:multiply" opacity="0.5" d="M38.4669 8.9978C38.4669 8.9978 32.3318 12.104 31.936 27.7036C31.5402 43.2986 40.9154 78.7493 40.9154 78.7493C40.9154 78.7493 32.6862 27.2363 38.4669 8.9978Z" fill="url(#paint12_linear_31_24635)"/>
<path style="mix-blend-mode:multiply" opacity="0.5" d="M41.2744 8.64045C41.546 9.03444 46.1898 12.1956 47.6166 27.699C49.0479 43.2069 45.2601 78.7447 45.2601 78.7447C45.2601 78.7447 53.77 35.3911 52.0211 23.7269C50.2676 12.0673 41.2744 8.63586 41.2744 8.63586V8.64045Z" fill="url(#paint13_linear_31_24635)"/>
<path style="mix-blend-mode:multiply" opacity="0.5" d="M28.5671 23.7361C28.452 23.7452 26.1876 31.5382 30.8499 32.3766C34.785 33.0821 37.2427 27.4516 37.2427 27.4516L28.5671 23.7407V23.7361Z" fill="url(#paint14_linear_31_24635)"/>
<g style="mix-blend-mode:multiply" opacity="0.5">
<path d="M28.0103 22.8702C26.6526 23.2047 27.6053 31.3916 32.7738 30.8098C37.9424 30.2279 37.9424 27.2317 37.7629 26.856C37.5834 26.4804 31.637 21.9769 28.0103 22.8702Z" fill="#405A6B"/>
</g>
<g style="mix-blend-mode:multiply" opacity="0.5">
<path d="M28.7376 27.3554C28.7376 27.3554 27.1129 23.3742 28.0794 22.9298C29.0459 22.4854 31.3334 23.0856 33.768 24.1668C36.2027 25.248 37.5006 26.7827 37.2659 27.1767C37.0358 27.5707 28.7376 27.3508 28.7376 27.3508V27.3554Z" fill="#405A6B"/>
</g>
<path d="M37.2656 27.2638C37.2518 27.7632 36.7547 28.652 35.871 29.385C35.871 29.385 35.8618 29.3941 35.8572 29.3941C35.8158 29.4308 35.7744 29.4674 35.7284 29.4995C35.7146 29.5133 35.6961 29.5224 35.6823 29.5362C34.8539 30.1684 33.7263 30.654 32.3686 30.6265C31.7104 30.6128 31.1581 30.4524 30.6933 30.1913C29.7958 29.6828 29.2297 28.794 28.8845 27.8319C28.2356 26.0085 28.3921 23.9194 28.6084 23.6583C28.9996 23.191 30.4954 23.4796 32.1339 24.0797C32.5619 24.2355 32.9991 24.4096 33.4271 24.602C34.2602 24.9685 35.0656 25.3854 35.7238 25.7886C36.0827 26.0085 36.3957 26.2238 36.6442 26.43C36.8606 26.6087 37.0262 26.7736 37.1321 26.9248C37.2195 27.0485 37.2656 27.1676 37.261 27.2638H37.2656Z" fill="url(#paint15_linear_31_24635)"/>
<path d="M36.6907 26.9293C36.6907 28.6748 35.2686 30.0951 33.515 30.0951C31.7615 30.0951 30.3394 28.6794 30.3394 26.9293C30.3394 25.6695 31.0757 24.5837 32.1435 24.0751C32.5715 24.2309 33.0088 24.405 33.4368 24.5974C34.2698 24.9639 35.0753 25.3808 35.7334 25.784C36.0924 26.0039 36.4054 26.2192 36.6539 26.4254C36.6769 26.5903 36.6953 26.7552 36.6953 26.9293H36.6907Z" fill="url(#paint16_linear_31_24635)"/>
<g style="mix-blend-mode:multiply">
<path d="M36.0322 26.9293C36.0322 28.2259 34.9783 29.275 33.6758 29.275C32.3733 29.275 31.3193 28.2259 31.3193 26.9293C31.3193 25.7153 32.2444 24.7165 33.4319 24.5974C34.2649 24.9639 35.0703 25.3808 35.7285 25.784C35.9218 26.123 36.0276 26.5124 36.0276 26.9293H36.0322Z" fill="#9A5EA3"/>
</g>
<g style="mix-blend-mode:multiply" opacity="0.75">
<path d="M37.1367 26.9248C36.161 25.9077 31.2962 24.2584 29.9431 24.909C28.613 25.5503 28.8937 27.7494 28.8845 27.8273C28.2356 26.0039 28.3921 23.9194 28.6084 23.6582C29.5013 22.5908 36.1242 25.4679 37.1367 26.9248Z" fill="#C77FBF"/>
</g>
<g style="mix-blend-mode:multiply" opacity="0.75">
<path d="M35.6824 29.5361C34.854 30.1684 33.7264 30.654 32.3686 30.6265C31.7105 30.6128 31.1582 30.4524 30.6934 30.1913C30.8314 30.2096 34.1866 30.6677 35.6824 29.5407V29.5361Z" fill="#C77FBF"/>
</g>
<g style="mix-blend-mode:multiply" opacity="0.75">
<path d="M35.8574 29.3941C35.816 29.4308 35.7745 29.4674 35.7285 29.4995C35.7469 29.4857 35.7653 29.472 35.7791 29.4582C35.8068 29.4353 35.8298 29.417 35.8574 29.3941Z" fill="#C77FBF"/>
</g>
<g style="mix-blend-mode:soft-light" opacity="0.5">
<path d="M30.4956 26.4712C30.0814 27.0026 30.9145 29.9026 33.3492 29.9943C35.5675 30.0767 36.488 28.0472 36.2027 27.9372C36.0416 27.8731 30.9145 25.9352 30.4956 26.4712Z" fill="#FF7ABD"/>
</g>
<path d="M30.5599 26.265C30.2101 26.1917 29.6026 27.108 30.1595 27.2317C30.7164 27.3554 31.1674 26.3887 30.5599 26.265Z" fill="white"/>
<path style="mix-blend-mode:multiply" opacity="0.5" d="M44.1235 27.7036C44.1235 27.7723 46.2545 33.5311 50.0699 32.9355C54.9024 32.1796 53.1673 24.3042 52.8267 24.208C52.4862 24.1072 44.1235 27.7082 44.1235 27.7082V27.7036Z" fill="url(#paint17_linear_31_24635)"/>
<g style="mix-blend-mode:multiply" opacity="0.5">
<path d="M53.2777 22.8702C54.6354 23.2047 53.6827 31.3916 48.5141 30.8098C43.3456 30.2279 43.3456 27.2317 43.5251 26.856C43.7046 26.4804 49.6509 21.9769 53.2777 22.8702Z" fill="#405A6B"/>
</g>
<g style="mix-blend-mode:multiply" opacity="0.5">
<path d="M44.0635 27.0851C44.0635 27.0851 45.0806 25.6923 47.4187 24.2263C49.7567 22.7603 53.2683 22.3159 53.6227 23.2092C53.9771 24.1026 53.0981 26.9156 52.4123 27.7036C51.7265 28.4916 44.0635 27.0851 44.0635 27.0851Z" fill="#405A6B"/>
</g>
<path d="M44.022 27.2637C44.0358 27.7631 44.5328 28.6519 45.4165 29.3849C45.4165 29.3849 45.4257 29.3941 45.4303 29.3941C45.4717 29.4307 45.5132 29.4674 45.5592 29.4994C45.573 29.5132 45.5914 29.5224 45.6052 29.5361C46.4336 30.1683 47.5612 30.654 48.919 30.6265C49.5771 30.6127 50.1294 30.4524 50.5942 30.1912C51.4917 29.6827 52.0578 28.7939 52.403 27.8318C53.0519 26.0084 52.8955 23.9193 52.6792 23.6582C52.2879 23.1909 50.7922 23.4795 49.1537 24.0797C48.7257 24.2354 48.2884 24.4095 47.8604 24.602C47.0274 24.9685 46.2219 25.3854 45.5638 25.7885C45.2048 26.0084 44.8918 26.2238 44.6433 26.4299C44.427 26.6086 44.2613 26.7735 44.1554 26.9247C44.068 27.0484 44.022 27.1675 44.0266 27.2637H44.022Z" fill="url(#paint18_linear_31_24635)"/>
<path d="M44.6023 26.9293C44.6023 28.6748 46.0244 30.0951 47.7779 30.0951C49.5315 30.0951 50.9536 28.6794 50.9536 26.9293C50.9536 25.6695 50.2172 24.5837 49.1495 24.0751C48.7214 24.2309 48.2842 24.405 47.8562 24.5974C47.0231 24.9639 46.2177 25.3808 45.5596 25.784C45.2006 26.0039 44.8876 26.2192 44.6391 26.4254C44.6161 26.5903 44.5977 26.7552 44.5977 26.9293H44.6023Z" fill="url(#paint19_linear_31_24635)"/>
<g style="mix-blend-mode:multiply">
<path d="M45.2603 26.9293C45.2603 28.2259 46.3142 29.275 47.6167 29.275C48.9192 29.275 49.9731 28.2259 49.9731 26.9293C49.9731 25.7153 49.0481 24.7165 47.8606 24.5974C47.0276 24.9639 46.2222 25.3808 45.564 25.784C45.3707 26.123 45.2649 26.5124 45.2649 26.9293H45.2603Z" fill="#9A5EA3"/>
</g>
<g style="mix-blend-mode:multiply" opacity="0.75">
<path d="M44.1558 26.9248C45.1315 25.9077 49.9962 24.2584 51.3494 24.909C52.6795 25.5503 52.3987 27.7494 52.4079 27.8273C53.0569 26.0039 52.9004 23.9194 52.6841 23.6582C51.7912 22.5908 45.1683 25.4679 44.1558 26.9248Z" fill="#C77FBF"/>
</g>
<g style="mix-blend-mode:multiply" opacity="0.75">
<path d="M45.6099 29.5361C46.4383 30.1684 47.5659 30.654 48.9236 30.6265C49.5818 30.6128 50.1341 30.4524 50.5989 30.1913C50.4608 30.2096 47.1057 30.6677 45.6099 29.5407V29.5361Z" fill="#C77FBF"/>
</g>
<g style="mix-blend-mode:multiply" opacity="0.75">
<path d="M45.4351 29.3941C45.4765 29.4308 45.5179 29.4674 45.5639 29.4995C45.5455 29.4857 45.5271 29.472 45.5133 29.4582C45.4857 29.4353 45.4627 29.417 45.4351 29.3941Z" fill="#C77FBF"/>
</g>
<g style="mix-blend-mode:soft-light" opacity="0.5">
<path d="M50.7971 26.4712C51.2113 27.0026 50.3782 29.9026 47.9436 29.9943C45.7252 30.0767 44.8047 28.0472 45.09 27.9372C45.2511 27.8731 50.3782 25.9352 50.7971 26.4712Z" fill="#FF7ABD"/>
</g>
<path d="M45.2232 26.7965C44.9103 26.8194 44.6203 27.7265 45.1174 27.699C45.6144 27.6715 45.7617 26.7552 45.2232 26.7965Z" fill="white"/>
<path style="mix-blend-mode:multiply" d="M32.6128 32.9584C34.2605 32.8943 37.3671 34.3466 40.2943 34.2824C43.2214 34.2137 44.777 32.7476 47.3222 32.9538C49.8673 33.16 49.7108 38.314 48.2196 38.4469C46.7239 38.5797 43.1616 37.0312 40.6348 37.0175C37.3947 36.9992 35.5307 38.8088 32.8475 38.5797C31.0572 38.4286 31.1538 33.0134 32.6174 32.9584H32.6128Z" fill="url(#paint20_linear_31_24635)"/>
<path d="M47.8191 38.0483C47.6626 38.0804 47.4831 38.0941 47.2852 38.0804C47.0228 38.0667 46.7329 38.0254 46.4153 37.9567C45.9229 37.8467 45.366 37.6818 44.7815 37.4986C44.2338 37.3245 43.6585 37.1366 43.0832 36.9625C42.3146 36.7289 41.5506 36.5319 40.851 36.4403C40.7175 36.4219 40.584 36.4082 40.4552 36.399C39.8062 36.3532 39.1389 36.4769 38.4669 36.6785C37.8134 36.8709 37.1552 37.1366 36.5109 37.3932C36.1473 37.5352 35.7837 37.6772 35.4293 37.7918C34.9184 37.9613 34.4214 38.0941 33.9473 38.1308C33.6942 38.1537 33.4549 38.1537 33.2155 38.117C33.2017 38.117 33.1879 38.1171 33.1741 38.1125C31.0616 37.7734 32.2214 33.8426 32.5804 33.5219C32.8796 33.2516 33.4134 33.2516 34.09 33.3891C35.0565 33.5769 36.3222 34.0396 37.6523 34.3741C38.4715 34.5802 39.3184 34.7406 40.1238 34.7543C40.9338 34.7681 41.7531 34.6719 42.5447 34.5298C43.7827 34.3053 44.9517 33.9526 45.9229 33.7098C46.6408 33.5265 47.253 33.4028 47.7086 33.4211C49.1584 33.4899 49.3103 37.7276 47.8237 38.0483H47.8191Z" fill="#520917"/>
<path fill-rule="evenodd" clip-rule="evenodd" d="M46.4109 37.9567C45.9184 37.8467 45.3615 37.6818 44.777 37.4985C44.2293 37.3244 43.654 37.1366 43.0787 36.9625C42.3101 36.7289 41.5461 36.5319 40.8465 36.4402C40.7131 36.4219 40.5796 36.4082 40.4507 36.399C39.8018 36.3532 39.1344 36.4769 38.4625 36.6785C37.8089 36.8709 37.1508 37.1366 36.5064 37.3932C36.1428 37.5352 35.7792 37.6772 35.4249 37.7917C34.914 37.9613 34.4169 38.0941 33.9429 38.1308C34.2006 37.6222 35.5261 35.6935 37.5466 35.6706C39.8202 35.6477 40.3172 35.8951 41.0858 35.7622C41.8499 35.6248 43.203 35.1575 44.5331 35.5606C45.6192 35.8905 46.2268 37.4161 46.4063 37.9567H46.4109Z" fill="url(#paint21_linear_31_24635)"/>
<path d="M37.6477 34.3787C37.39 35.0017 36.8607 36.0509 36.2026 36.0509C35.0796 36.0509 34.1775 33.6411 34.0854 33.3937C35.052 33.5815 36.3176 34.0442 37.6477 34.3787Z" fill="url(#paint22_linear_31_24635)"/>
<path d="M45.9182 33.7144C45.7433 34.5436 45.2509 36.3486 44.2982 36.3532C43.7091 36.3532 42.9358 35.2033 42.54 34.5344C43.7781 34.3099 44.9471 33.9572 45.9182 33.7144Z" fill="url(#paint23_linear_31_24635)"/>
<path d="M35.4296 37.7918C34.6472 38.0529 33.897 38.2178 33.2158 38.1216C33.3677 37.9659 34.1317 37.2008 34.4769 37.2374C34.7807 37.2695 35.2547 37.6406 35.4296 37.7963V37.7918Z" fill="url(#paint24_linear_31_24635)"/>
<path d="M38.4673 36.6831C37.8137 36.8755 37.1556 37.1412 36.5112 37.3978C36.6723 37.187 37.1418 36.596 37.51 36.5319C37.7631 36.4907 38.1727 36.5869 38.4673 36.6831Z" fill="url(#paint25_linear_31_24635)"/>
<path d="M43.0833 36.9626C42.3146 36.7289 41.5506 36.5319 40.8511 36.4403C41.1871 36.3441 41.7209 36.2341 42.0431 36.3028C42.2686 36.3532 42.8209 36.7197 43.0833 36.9626Z" fill="url(#paint26_linear_31_24635)"/>
<path d="M47.2855 38.0849C46.6181 38.0529 45.7344 37.8009 44.7817 37.5031C45.0349 37.4344 45.9139 37.2007 46.4064 37.297C46.816 37.3748 47.1428 37.8284 47.2855 38.0849Z" fill="url(#paint27_linear_31_24635)"/>
<path d="M37.4912 37.5535C37.4912 37.5535 39.5991 36.6831 41.3757 36.9671C43.1568 37.2466 45.9275 38.085 45.9275 38.085C45.9275 38.085 40.3999 36.6235 37.4912 37.5535Z" fill="#6AD94C"/>
<g style="mix-blend-mode:screen" opacity="0.5">
<path d="M34.5781 39.6793C33.8371 39.212 38.2923 37.1825 40.911 37.3932C43.5298 37.6085 47.4649 39.5281 47.3314 40.0642C47.198 40.6002 37.0496 41.2324 34.5781 39.6793Z" fill="#525300"/>
</g>
<path d="M27.8769 18.9806C27.587 18.8844 27.2464 16.6029 27.3983 15.0269C27.4673 14.2847 27.6468 13.6983 27.992 13.57C28.8572 13.2585 30.9928 14.1106 31.9455 14.7245C31.9593 14.7337 31.9685 14.7428 31.9823 14.752C32.1894 14.8894 32.3367 15.0131 32.3919 15.1093C32.6773 15.627 29.5476 19.5304 27.8815 18.976L27.8769 18.9806Z" fill="url(#paint28_linear_31_24635)"/>
<path d="M55.9701 10.4455C55.9701 10.4455 55.9701 10.4455 55.9701 10.4547C55.7399 12.0719 54.5617 14.7383 53.9266 14.7291C53.0797 14.72 49.3978 12.0399 49.9685 11.0136C50.1388 10.7067 50.3689 10.441 50.6404 10.2119C52.2099 8.88787 55.1692 8.74126 55.8228 9.31393C56.0161 9.48345 56.0437 9.90493 55.9701 10.4455Z" fill="url(#paint29_linear_31_24635)"/>
<path d="M31.8761 13.0981C31.8761 13.0981 30.7485 12.4705 30.2055 10.4913C29.5933 8.27852 29.9661 6.38183 30.4218 5.24107C30.7301 4.47598 31.0707 4.05449 31.1858 4.10031C31.4757 4.21942 31.3653 6.40932 33.1418 8.2098C33.9426 9.02071 34.9368 9.60712 35.5259 10.0057C35.7652 10.166 35.9355 10.2989 36.0045 10.4043C36.2439 10.7754 34.0117 13.7166 31.8807 13.0935L31.8761 13.0981Z" fill="url(#paint30_linear_31_24635)"/>
<path d="M50.1942 8.37475C48.5696 9.88202 45.2558 8.24189 45.2973 7.80208C45.3249 7.52719 45.7529 6.90413 46.1901 6.09781C46.2085 6.06574 46.2223 6.03825 46.2362 6.01534C46.4709 5.57553 46.701 5.08074 46.8713 4.56304C47.6491 2.16698 46.5675 0.251968 46.77 0.0183182C46.8529 -0.0733093 47.3499 0.151178 47.9667 0.696362C48.8872 1.51185 50.0654 3.04203 50.5164 5.29148C50.9168 7.30271 50.1942 8.36559 50.1942 8.36559V8.37475Z" fill="url(#paint31_linear_31_24635)"/>
<g style="mix-blend-mode:screen" opacity="0.5">
<path d="M28.7881 22.4304C28.3923 22.3388 30.2931 18.8661 34.2604 19.4891C38.2323 20.1122 37.9286 25.8985 37.4867 25.8618C37.0495 25.8298 34.6977 23.8094 28.7881 22.4304Z" fill="#525300"/>
</g>
<g style="mix-blend-mode:screen" opacity="0.5">
<path d="M43.7876 26.0726C43.3181 26.407 43.0512 21.1385 45.9185 19.2097C48.7858 17.2809 52.661 21.6103 52.4815 22.2609C52.3021 22.9114 49.3059 22.1509 43.7876 26.0726Z" fill="#525300"/>
</g>
<path style="mix-blend-mode:multiply" opacity="0.5" d="M31.0296 35.5744C31.0296 35.5744 30.6338 39.1479 32.0191 39.3174C33.4044 39.4869 35.1625 38.4882 35.1625 38.4882C35.1625 38.4882 33.676 39.9771 31.7061 39.7526C29.7363 39.5281 31.0296 35.5744 31.0296 35.5744Z" fill="url(#paint32_linear_31_24635)"/>
<path style="mix-blend-mode:multiply" opacity="0.5" d="M47.2026 39.015C47.2026 39.015 48.4407 39.4869 49.2185 38.8638C49.9963 38.2408 49.5591 35.7897 49.5591 35.7897C49.5591 35.7897 50.5348 38.2499 49.6787 39.1891C48.8227 40.1283 47.2026 39.0196 47.2026 39.0196V39.015Z" fill="url(#paint33_linear_31_24635)"/>
<g style="mix-blend-mode:multiply" opacity="0.75">
<path d="M27.8769 18.9806C27.587 18.8844 27.2464 16.6029 27.3983 15.0269C27.3983 15.0269 27.2602 18.0048 28.9171 18.046C30.574 18.0873 32.6681 15.2468 31.9823 14.7566C32.1894 14.894 32.3367 15.0177 32.3919 15.1139C32.6773 15.6316 29.5476 19.535 27.8815 18.9806H27.8769Z" fill="#C77FBF"/>
</g>
<g style="mix-blend-mode:multiply" opacity="0.75">
<path d="M31.8761 13.0982C31.8761 13.0982 30.7485 12.4705 30.2055 10.4913C29.5933 8.27854 29.9661 6.38185 30.4218 5.24109C30.3942 5.37853 29.3356 11.5542 32.6171 12.0215C34.7297 12.3239 35.4062 11.0549 35.5259 10.0057C35.7652 10.1661 35.9355 10.2989 36.0045 10.4043C36.2439 10.7754 34.0117 13.7166 31.8807 13.0936L31.8761 13.0982Z" fill="#C77FBF"/>
</g>
<g style="mix-blend-mode:multiply" opacity="0.75">
<path d="M55.9701 10.4547C55.7399 12.0719 54.5617 14.7383 53.9266 14.7291C53.0797 14.7199 49.3978 12.0398 49.9685 11.0136C50.1388 10.7066 50.3689 10.4409 50.6404 10.2119C50.3275 11.513 51.4689 13.2356 53.563 12.9424C55.588 12.6583 55.947 10.5967 55.9701 10.4547Z" fill="#C77FBF"/>
</g>
<g style="mix-blend-mode:multiply" opacity="0.75">
<path d="M50.1942 8.37473C48.5696 9.88201 45.2558 8.24187 45.2973 7.80206C45.3249 7.52718 45.7529 6.90411 46.1901 6.09779C45.5274 7.20648 49.5131 10.2531 49.9089 6.65214C50.3001 3.08783 47.9943 0.810881 47.9713 0.700928C48.8918 1.51641 50.07 3.04659 50.521 5.29605C50.9214 7.30727 50.1989 8.37015 50.1989 8.37015L50.1942 8.37473Z" fill="#C77FBF"/>
</g>
<g style="mix-blend-mode:screen" opacity="0.5">
<path d="M28.0934 13.68C27.0809 14.0419 28.457 15.9661 29.4972 16.0761C30.5373 16.186 31.8444 15.0727 31.3888 14.6375C30.9331 14.2023 28.9633 13.3731 28.0934 13.68Z" fill="#BDBF00"/>
</g>
<g style="mix-blend-mode:screen" opacity="0.5">
<path d="M51.2709 9.9828C50.9625 10.2623 51.9198 10.9174 53.2822 10.9953C54.6399 11.0732 56.4072 9.68501 55.6156 9.38722C54.824 9.08943 52.5642 8.81455 51.2755 9.9828H51.2709Z" fill="#BDBF00"/>
</g>
<g style="mix-blend-mode:multiply" opacity="0.75">
<path d="M27.8771 18.9807C27.8081 18.9577 29.1336 18.66 30.3808 17.7712C31.6281 16.8824 32.3875 15.3156 32.3875 15.3156C32.3875 15.3156 31.9917 17.1435 30.8227 18.1972C29.649 19.251 28.2913 19.1089 27.8771 18.9807Z" fill="#C77FBF"/>
</g>
<g style="mix-blend-mode:multiply" opacity="0.75">
<path d="M31.9272 13.1119C31.9272 13.1119 33.1054 13.1715 34.2882 12.3651C35.4711 11.5588 35.8623 10.8854 35.8577 10.9037C35.8531 10.9266 35.4204 12.7408 33.5196 13.2952C31.6188 13.8495 31.9272 13.1073 31.9272 13.1073V13.1119Z" fill="#C77FBF"/>
</g>
<g style="mix-blend-mode:multiply" opacity="0.75">
<path d="M45.3247 7.89368C45.3247 7.89368 46.3234 9.33681 48.2058 9.18562C50.0882 9.03444 50.1941 8.37472 50.1941 8.37472C50.1941 8.37472 49.5129 8.93365 48.146 8.86493C46.7791 8.79621 45.3247 7.89368 45.3247 7.89368Z" fill="#C77FBF"/>
</g>
<g style="mix-blend-mode:multiply" opacity="0.75">
<path d="M49.9087 11.2839C49.9087 11.2839 49.9731 12.7958 51.6116 13.8953C53.2501 14.9949 54.0463 14.7062 54.0463 14.7062C54.0463 14.7062 53.5354 14.7337 51.8095 13.5105C50.0882 12.2873 49.9087 11.2839 49.9087 11.2839Z" fill="#C77FBF"/>
</g>
<g style="mix-blend-mode:screen" opacity="0.5">
<path d="M33.5105 14.0786C33.4967 13.6204 36.6631 11.8841 37.0773 10.9403C37.4962 9.99657 39.4798 7.53179 42.1354 7.66465C44.7956 7.79751 52.339 16.2731 51.2805 17.3726C50.2219 18.4721 33.69 20.914 33.5059 14.0786H33.5105Z" fill="#525300"/>
</g>
<g style="mix-blend-mode:screen" opacity="0.5">
<path d="M37.2656 12.2048C37.1552 11.3343 40.1928 7.41722 42.448 8.06319C44.7032 8.70917 47.9341 11.4809 46.627 13.4097C45.3199 15.3384 37.9422 17.6429 37.2656 12.2002V12.2048Z" fill="#525300"/>
</g>
<path style="mix-blend-mode:multiply" d="M27.656 36.6235C27.656 36.6235 27.656 36.6556 27.6652 36.7014C27.6652 36.6785 27.656 36.651 27.6514 36.6235H27.656Z" fill="url(#paint34_linear_31_24635)"/>
<path style="mix-blend-mode:multiply" d="M53.991 51.5084C52.7529 65.5961 50.7877 78.0529 49.071 79.5052C48.1321 80.3023 37.3025 80.0091 36.7779 79.5281C35.3465 78.2224 31.3792 60.0527 28.811 44.2881C30.5646 54.7978 34.2189 72.6377 39.1113 74.9513C45.4626 77.9613 52.1454 62.8152 53.9864 51.5038L53.991 51.5084Z" fill="url(#paint35_linear_31_24635)"/>
<g style="mix-blend-mode:screen" opacity="0.5">
<path d="M40.9157 41.8784C38.7387 42.5839 38.5178 47.7517 38.8308 57.2168C39.1483 66.6773 43.5621 73.7189 44.8692 71.2541C46.1762 68.7894 47.9574 39.5922 40.9157 41.8784Z" fill="#525300"/>
</g>
<g style="mix-blend-mode:screen" opacity="0.5">
<path d="M33.0453 46.1848C31.5541 45.7496 31.3746 54.4588 32.5805 59.4388C33.7863 64.4187 37.5097 69.4949 37.4913 67.8135C37.4729 66.1322 33.6206 46.3544 33.0453 46.1848Z" fill="#525300"/>
</g>
<g style="mix-blend-mode:screen" opacity="0.5">
<path d="M51.303 46.8904C50.6909 45.9329 49.0616 62.8656 49.6001 63.0031C50.1386 63.1359 54.4603 51.8016 51.303 46.8904Z" fill="#525300"/>
</g>
<g style="mix-blend-mode:screen" opacity="0.5">
<path d="M13.4805 25.8573C9.26009 26.1734 1.99284 33.4807 4.91999 41.8234C7.84714 50.166 23.7532 55.0086 22.7176 48.6404C21.6821 42.2723 15.8692 25.6832 13.4805 25.8573Z" fill="#525300"/>
</g>
<g style="mix-blend-mode:screen" opacity="0.5">
<path d="M60.9315 17.9773C60.1767 19.6174 59.2424 30.457 61.5068 32.2712C63.7712 34.0854 69.0778 29.9118 70.7991 23.42C72.5204 16.9327 72.0832 11.6183 70.7991 11.2793C69.515 10.9403 62.8231 13.8678 60.9315 17.9727V17.9773Z" fill="#525300"/>
</g>
<g style="mix-blend-mode:screen" opacity="0.5">
<path d="M5.04402 39.6289C5.32476 41.7088 13.8071 40.4123 15.1556 37.4986C16.5087 34.5848 15.4271 26.5124 13.3974 26.3566C11.3678 26.2009 3.77835 30.2829 5.03941 39.6335L5.04402 39.6289Z" fill="#525300"/>
</g>
<g style="mix-blend-mode:screen" opacity="0.5">
<path d="M42.3974 42.7534C41.0258 42.955 41.2882 52.8554 43.4743 53.3272C45.6605 53.7991 44.5099 42.4373 42.3974 42.7534Z" fill="#525300"/>
</g>
<g style="mix-blend-mode:screen" opacity="0.5">
<path d="M43.7321 56.0165C42.5355 56.2135 43.502 58.9073 44.022 58.5729C44.5421 58.2384 44.5421 55.8836 43.7321 56.0165Z" fill="#525300"/>
</g>
<g style="mix-blend-mode:screen" opacity="0.5">
<path d="M30.9005 20.268C30.5369 20.3275 29.0089 21.9173 29.598 22.2288C30.1871 22.5403 32.9532 23.6078 33.418 23.2459C33.8829 22.8839 32.7691 19.9564 30.9005 20.268Z" fill="#525300"/>
</g>
<g style="mix-blend-mode:screen" opacity="0.5">
<path d="M47.4923 18.8386C46.6777 18.9257 45.679 23.2596 47.1011 23.42C48.5233 23.5803 52.0211 22.6732 51.8324 21.8486C51.6483 21.0239 49.4852 18.6187 47.4923 18.8386Z" fill="#525300"/>
</g>
<g style="mix-blend-mode:multiply" opacity="0.5">
<path fill-rule="evenodd" clip-rule="evenodd" d="M1.61061 40.197C1.65663 40.2703 1.47714 41.0491 1.85914 41.1087C2.24114 41.1682 3.14782 40.8521 4.20638 38.5568C5.26494 36.2616 4.77709 35.4644 3.87501 36.1791C2.96833 36.8938 1.61061 40.1924 1.61061 40.1924V40.197Z" fill="#405A6B"/>
</g>
<g style="mix-blend-mode:multiply" opacity="0.5">
<path fill-rule="evenodd" clip-rule="evenodd" d="M4.48266 46.2307C4.48266 46.2307 4.3676 45.548 4.77722 45.6305C5.18683 45.713 6.31443 46.1757 6.78388 47.2936C7.25333 48.4114 7.34998 49.882 6.61359 49.4147C5.8772 48.9474 4.48266 46.2307 4.48266 46.2307Z" fill="#405A6B"/>
</g>
<g style="mix-blend-mode:multiply" opacity="0.5">
<path fill-rule="evenodd" clip-rule="evenodd" d="M9.70208 32.3812C9.66526 32.3903 7.79668 33.6777 8.60671 34.681C9.41673 35.6798 12.7397 36.0417 12.8732 34.7131C13.0066 33.3845 11.0598 32.0055 9.70208 32.3812Z" fill="#405A6B"/>
</g>
<g style="mix-blend-mode:multiply" opacity="0.5">
<path fill-rule="evenodd" clip-rule="evenodd" d="M11.805 26.7094C11.6531 26.7506 10.4887 26.7781 10.6406 27.2042C10.7925 27.6303 11.3402 28.1022 13.3698 28.1709C15.3949 28.2396 16.679 27.8364 16.1681 27.3462C15.6526 26.8606 11.8096 26.7094 11.8096 26.7094H11.805Z" fill="#405A6B"/>
</g>
<path d="M15.7589 27.5478C15.2159 28.0197 12.0862 28.2075 11.0967 27.25C11.0967 27.25 11.5385 25.7198 12.169 24.5928C12.1875 24.5607 12.2059 24.5287 12.2197 24.5012C12.2887 24.3821 12.3577 24.2629 12.436 24.1576C12.7213 23.7407 13.0297 23.4475 13.3473 23.4245C14.1435 23.3604 15.2205 25.0647 15.6577 26.3154C15.8648 26.9064 15.9338 27.3966 15.7589 27.5478Z" fill="url(#paint36_linear_31_24635)"/>
<path d="M1.91453 40.646C1.87311 40.6414 1.02626 39.8305 0.47397 38.9508C0.0873656 38.3324 -0.156563 37.6772 0.110378 37.2374C0.621248 36.399 2.64632 36.0004 3.72329 36.0737C4.03165 36.0966 4.26177 36.1562 4.35842 36.2524C4.79566 36.6968 3.50697 40.9483 1.90993 40.6505L1.91453 40.646Z" fill="url(#paint37_linear_31_24635)"/>
<path d="M12.6385 34.8139C12.031 35.6889 9.5549 35.5286 8.9888 34.7222C8.64362 34.2275 8.94278 33.3936 9.3616 32.7935C9.3616 32.7889 9.3662 32.7843 9.3708 32.7797C9.62854 32.4086 9.9369 32.1292 10.1624 32.0742C11.0507 31.868 11.7779 32.2529 12.2427 32.8118C12.2427 32.8118 12.2427 32.8118 12.2427 32.8164C12.7766 33.4624 12.9607 34.342 12.6339 34.8093L12.6385 34.8139Z" fill="url(#paint38_linear_31_24635)"/>
<path d="M6.65488 49.1123C6.1256 49.6529 3.87961 48.8146 3.53443 48.0586C3.51602 48.0174 3.50221 47.9762 3.49761 47.9349C3.40096 47.3897 4.07752 46.5926 4.49174 46.1574C4.67584 45.9695 4.80931 45.8504 4.80931 45.8504C5.89548 45.8962 7.21638 48.5397 6.66409 49.1123H6.65488Z" fill="url(#paint39_linear_31_24635)"/>
<path d="M60.5037 19.8099C60.2781 19.7091 59.9053 18.5546 59.8593 17.6521C59.8409 17.2214 59.8961 16.8457 60.0802 16.6716C60.4668 16.3097 61.5576 16.0761 62.2526 16.0852C62.5886 16.0852 62.8325 16.1448 62.8555 16.2685C62.9291 16.6487 61.24 20.1535 60.499 19.8145L60.5037 19.8099Z" fill="url(#paint40_linear_31_24635)"/>
<path d="M73.9195 11.8016V11.82C73.9195 11.8474 73.9195 11.8704 73.9195 11.8978C73.9057 12.2918 73.8091 12.6034 73.5928 12.7408C72.7137 13.2997 69.5841 12.7912 69.2251 11.7879C69.0778 11.3847 69.9983 10.1065 70.9648 9.33227C71.4296 8.9566 71.9083 8.70004 72.2857 8.71378C73.1187 8.74585 73.8827 10.5188 73.9195 11.7237C73.9195 11.7467 73.9195 11.7741 73.9195 11.797V11.8016Z" fill="url(#paint41_linear_31_24635)"/>
<path d="M70.2006 17.6016C69.7956 18.2064 67.0434 18.0231 66.4865 17.4184C66.1137 17.0152 66.6061 15.9798 67.1262 15.3247C67.1354 15.3109 67.1446 15.3063 67.1446 15.3018C67.3977 14.9857 67.6555 14.7612 67.8212 14.7428C68.576 14.6695 69.5425 15.6637 70.0027 16.5296C70.2421 16.9786 70.3433 17.3955 70.2052 17.6016H70.2006Z" fill="url(#paint42_linear_31_24635)"/>
<g style="mix-blend-mode:multiply" opacity="0.75">
<path fill-rule="evenodd" clip-rule="evenodd" d="M1.91419 40.6459C1.87277 40.6414 1.02592 39.8305 0.473633 38.9508C0.878647 39.4685 1.57361 39.9175 2.66899 39.4044C4.65264 38.479 4.12797 36.2341 3.72755 36.0692C4.03592 36.0921 4.26604 36.1516 4.36269 36.2478C4.79992 36.6922 3.51124 40.9437 1.91419 40.6459Z" fill="#C77FBF"/>
</g>
<g style="mix-blend-mode:multiply" opacity="0.75">
<path fill-rule="evenodd" clip-rule="evenodd" d="M6.65512 49.1123C6.12584 49.6529 3.87985 48.8146 3.53467 48.0586C3.62672 48.0999 6.2501 49.2727 5.93714 48.0586C5.61497 46.8217 5.12711 46.0337 4.49197 46.1574C4.67607 45.9695 4.80954 45.8504 4.80954 45.8504C5.89572 45.8962 7.21662 48.5397 6.66432 49.1123H6.65512Z" fill="#C77FBF"/>
</g>
<g style="mix-blend-mode:multiply" opacity="0.75">
<path fill-rule="evenodd" clip-rule="evenodd" d="M12.6385 34.8138C12.031 35.6889 9.5549 35.5285 8.9888 34.7222C8.64362 34.2274 8.94278 33.3936 9.3616 32.7935C9.26955 32.9309 8.616 34.1083 9.3708 34.7131C10.1532 35.3407 12.2933 35.1071 12.5051 34.3099C12.7076 33.5494 12.2887 32.8851 12.2473 32.8209C12.7812 33.4669 12.9653 34.3465 12.6385 34.8138Z" fill="#C77FBF"/>
</g>
<g style="mix-blend-mode:multiply" opacity="0.75">
<path fill-rule="evenodd" clip-rule="evenodd" d="M12.4312 24.1576C12.4174 24.1897 12.3253 24.3134 12.2148 24.5012C12.2839 24.3821 12.3529 24.263 12.4312 24.1576Z" fill="#C77FBF"/>
</g>
<g style="mix-blend-mode:multiply" opacity="0.75">
<path fill-rule="evenodd" clip-rule="evenodd" d="M15.7589 27.5478C15.2159 28.0197 12.0862 28.2075 11.0967 27.25C11.0967 27.25 11.5385 25.7199 12.169 24.5928C11.8331 25.2022 11.4189 26.3154 12.4406 27.1126C13.8673 28.2304 15.7359 27.4516 15.6623 26.3154C15.8694 26.9064 15.9384 27.3966 15.7635 27.5478H15.7589Z" fill="#C77FBF"/>
</g>
<g style="mix-blend-mode:screen" opacity="0.5">
<path fill-rule="evenodd" clip-rule="evenodd" d="M10.9217 33.0867C10.5811 33.1692 10.0426 34.3237 11.0736 34.1954C12.1045 34.0671 11.8192 32.8668 10.9217 33.0867Z" fill="#BDBF00"/>
</g>
<g style="mix-blend-mode:screen" opacity="0.5">
<path fill-rule="evenodd" clip-rule="evenodd" d="M0.11031 37.7139C-0.0645829 38.424 1.14586 38.3645 1.92367 38.0621C2.70148 37.7597 3.46548 36.5365 2.57721 36.4494C1.68894 36.3578 0.460095 36.2799 0.11031 37.7185V37.7139Z" fill="#BDBF00"/>
</g>
<g style="mix-blend-mode:screen" opacity="0.5">
<path fill-rule="evenodd" clip-rule="evenodd" d="M3.58046 47.9258C3.60347 48.0633 4.73567 47.2432 4.43191 47.0095C4.12815 46.7759 3.41017 47.0004 3.58046 47.9258Z" fill="#BDBF00"/>
</g>
<g style="mix-blend-mode:screen" opacity="0.5">
<path fill-rule="evenodd" clip-rule="evenodd" d="M13.3653 23.562C13.0155 23.7086 13.2364 25.0693 13.8716 25.3625C14.5067 25.6557 15.0314 25.445 15.0084 25.1563C14.9854 24.8631 13.867 23.3559 13.3653 23.562Z" fill="#BDBF00"/>
</g>
<g style="mix-blend-mode:multiply" opacity="0.75">
<path fill-rule="evenodd" clip-rule="evenodd" d="M60.5037 19.8099C60.2782 19.7091 59.9054 18.5546 59.8594 17.652C59.8824 17.8582 60.0757 19.0952 61.1481 18.7058C62.3125 18.2843 62.7497 16.1219 62.2572 16.076C62.5932 16.076 62.8372 16.1356 62.8602 16.2593C62.9338 16.6396 61.2447 20.1443 60.5037 19.8053V19.8099Z" fill="#C77FBF"/>
</g>
<g style="mix-blend-mode:multiply" opacity="0.75">
<path fill-rule="evenodd" clip-rule="evenodd" d="M70.2006 17.6017C69.7956 18.2064 67.0434 18.0231 66.4865 17.4184C66.1137 17.0152 66.6061 15.9798 67.1262 15.3247C66.9927 15.5034 66.1781 16.69 66.7304 17.3726C67.3195 18.1056 69.7036 17.9727 69.9659 17.5604C70.1408 17.2855 70.0672 16.8137 69.9981 16.5342C70.2375 16.9832 70.3387 17.4001 70.2006 17.6062V17.6017Z" fill="#C77FBF"/>
</g>
<g style="mix-blend-mode:multiply" opacity="0.75">
<path fill-rule="evenodd" clip-rule="evenodd" d="M73.9152 11.9024C73.9013 12.2918 73.8047 12.6034 73.5884 12.7408C72.7093 13.2997 69.5797 12.7912 69.2207 11.7879C69.0734 11.3847 69.9939 10.1065 70.9604 9.33228C70.9512 9.45139 69.5244 10.8899 70.6014 12.0124C71.6415 13.1027 73.8139 12.7591 73.9152 11.8978V11.9024Z" fill="#C77FBF"/>
</g>
<g style="mix-blend-mode:screen" opacity="0.5">
<path fill-rule="evenodd" clip-rule="evenodd" d="M60.1121 16.8182C60.0523 16.9877 60.7243 17.4184 61.2443 17.2122C61.7644 17.006 62.3351 16.1768 61.8058 16.2135C61.2765 16.2547 60.2778 16.3555 60.1121 16.8182Z" fill="#BDBF00"/>
</g>
<g style="mix-blend-mode:screen" opacity="0.5">
<path fill-rule="evenodd" clip-rule="evenodd" d="M68.5391 16.076C67.881 15.8974 66.7396 16.8182 67.973 17.116C69.2065 17.4138 69.9245 16.4517 68.5391 16.076Z" fill="#BDBF00"/>
</g>
<g style="mix-blend-mode:screen" opacity="0.5">
<path fill-rule="evenodd" clip-rule="evenodd" d="M72.263 8.86039C71.7153 8.91078 71.8994 9.96908 72.355 10.2714C72.8107 10.5738 73.3952 10.9541 73.3169 10.4043C73.2387 9.85454 72.958 8.79166 72.263 8.8558V8.86039Z" fill="#BDBF00"/>
</g>
<g style="mix-blend-mode:screen" opacity="0.5">
<path fill-rule="evenodd" clip-rule="evenodd" d="M14.2536 40.646C12.1871 40.3665 10.8064 46.7988 12.4632 49.3872C14.1201 51.9757 20.674 55.7095 20.3012 54.3305C19.9284 52.9515 15.5009 40.8155 14.2536 40.6414V40.646Z" fill="#525300"/>
</g>
<g style="mix-blend-mode:screen" opacity="0.5">
<path fill-rule="evenodd" clip-rule="evenodd" d="M64.2083 21.4271C62.7631 22.5083 62.2246 35.24 63.0577 36.0005C63.8907 36.761 68.0974 31.529 68.8429 27.9464C69.5885 24.3638 65.8514 20.1947 64.2037 21.4271H64.2083Z" fill="#525300"/>
</g>
<g style="mix-blend-mode:screen">
<path fill-rule="evenodd" clip-rule="evenodd" d="M7.97121 41.7546C7.07834 41.6905 6.77918 43.3306 7.45113 43.4314C8.12769 43.5322 10.0193 41.9058 7.97121 41.7546Z" fill="#525300"/>
</g>
<g style="mix-blend-mode:screen">
<path fill-rule="evenodd" clip-rule="evenodd" d="M17.3417 36.4036C16.3982 36.4403 15.7631 38.2499 17.0058 38.5248C18.2438 38.7997 19.0538 36.3395 17.3417 36.4036Z" fill="#525300"/>
</g>
<g style="mix-blend-mode:screen">
<path d="M64.0656 18.8982C63.1268 19.031 63.0163 20.3688 63.9644 20.2543C64.9125 20.1443 65.1702 18.7424 64.0656 18.8982Z" fill="#525300"/>
</g>
<g style="mix-blend-mode:screen">
<path d="M71.4895 21.9036C70.6565 21.6699 69.5427 22.6641 70.431 23.2047C71.3192 23.7407 73.0912 22.3525 71.4895 21.9036Z" fill="#525300"/>
</g>
<g style="mix-blend-mode:screen">
<path d="M65.3635 24.8265C64.3648 24.8677 64.779 26.5766 65.2715 26.4071C65.7685 26.2376 66.4221 24.7807 65.3635 24.8265Z" fill="#525300"/>
</g>
<g style="mix-blend-mode:screen">
<path d="M14.7048 44.5447C14.2124 44.5447 13.568 45.7313 14.3872 45.9329C15.2111 46.1345 16.1454 44.5447 14.7048 44.5447Z" fill="#525300"/>
</g>
<g style="mix-blend-mode:multiply" opacity="0.2">
<path d="M33.9474 65.0143C32.0558 64.8677 35.5583 77.975 37.6478 79.1387C39.7373 80.3069 48.1045 79.8992 48.7626 79.1387C49.4208 78.3782 36.8469 65.2342 33.9428 65.0143H33.9474Z" fill="#405A6B"/>
</g>
<g style="mix-blend-mode:multiply" opacity="0.2">
<path d="M29.6164 49.0391C29.3357 47.4447 29.0687 45.855 28.8156 44.2928C28.7972 44.1736 28.7742 44.0545 28.7558 43.9354C28.383 41.6493 28.047 39.4182 27.7478 37.297C27.7064 37.0084 27.6788 36.8068 27.665 36.7014C27.665 36.6785 27.6558 36.651 27.6512 36.6235C26.9976 31.8635 26.5696 27.7219 26.5098 24.8906C26.6064 25.6557 27.5361 32.766 28.7373 35.7256C29.6348 37.9384 29.7085 45.1082 29.6164 49.0391Z" fill="#405A6B"/>
</g>
<g style="mix-blend-mode:multiply" opacity="0.2">
<path d="M53.9909 51.5084C53.9725 51.71 53.9541 51.9115 53.9357 52.1131C53.793 48.8054 53.7056 39.7159 54.0416 36.7701C54.4144 33.5311 55.1047 26.8926 55.1968 25.39C55.2474 33.192 54.7642 42.6709 53.9863 51.513L53.9909 51.5084Z" fill="#405A6B"/>
</g>
<path d="M47.3683 54.2435C46.4386 54.1793 45.2374 59.2005 47.0416 59.0631C48.8457 58.9302 49.1127 54.3672 47.3683 54.2435Z" fill="#0A4212"/>
<path d="M37.3167 47.4126C36.7322 47.4539 36.4698 50.5646 37.4732 50.3722C38.4765 50.1798 38.4857 47.3348 37.3167 47.4126Z" fill="#0A4212"/>
<path d="M46.2545 56.2959C46.4018 55.9111 47.0185 57.203 47.5754 56.8182C48.1323 56.438 48.3947 55.6271 48.5143 55.792C48.634 55.9569 48.5051 59.3426 47.1474 59.0539C45.7897 58.7653 46.0106 56.9236 46.2545 56.2959Z" fill="#5BBA41"/>
<path d="M36.8009 48.8696C36.9159 48.723 37.2105 49.85 37.5741 49.3643C37.9377 48.8787 37.795 48.1686 38.0527 48.3152C38.3105 48.4618 38.3105 50.2211 37.5373 50.3539C36.7641 50.4868 36.6306 49.094 36.8009 48.8696Z" fill="#5BBA41"/>
<g style="mix-blend-mode:multiply" opacity="0.5">
<path d="M47.2946 54.2481C46.816 54.2893 45.8264 56.131 47.2532 56.2318C48.6799 56.3326 48.6523 54.129 47.2946 54.2481Z" fill="#3F79BF"/>
</g>
<g style="mix-blend-mode:multiply" opacity="0.5">
<path d="M37.2522 47.431C36.6723 47.6463 36.7552 49.1353 37.3443 48.9749C37.9288 48.8191 38.2464 47.0599 37.2522 47.431Z" fill="#3F79BF"/>
</g>
<g style="mix-blend-mode:screen" opacity="0.5">
<path d="M29.3681 30.0401C29.0597 29.8568 29.9342 32.0742 31.4944 32.033C33.05 31.9917 33.6437 31.0159 33.363 30.9838C33.0822 30.9518 31.0894 31.0663 29.3681 30.0401Z" fill="#525300"/>
</g>
<g style="mix-blend-mode:screen" opacity="0.5">
<path d="M46.8526 30.6907C46.3832 30.5715 48.0953 32.6698 49.499 32.3995C50.9028 32.1292 51.9107 30.4662 51.5839 30.4524C51.2572 30.4387 49.2965 31.3046 46.8526 30.6861V30.6907Z" fill="#525300"/>
</g>
</g>
<defs>
<linearGradient id="paint0_linear_31_24635" x1="5.7113" y1="29.4124" x2="6.60585" y2="32.3285" gradientUnits="userSpaceOnUse">
<stop stop-color="#FFD52E"/>
<stop offset="1" stop-color="#FF8000"/>
</linearGradient>
<linearGradient id="paint1_linear_31_24635" x1="36.4141" y1="67.4562" x2="7.25117" y2="30.8671" gradientUnits="userSpaceOnUse">
<stop stop-color="#00664B"/>
<stop offset="0.2" stop-color="#0A7D40"/>
<stop offset="0.74" stop-color="#26BB26"/>
<stop offset="1" stop-color="#31D41C"/>
</linearGradient>
<linearGradient id="paint2_linear_31_24635" x1="6.49382" y1="31.1671" x2="41.2327" y2="60.7459" gradientUnits="userSpaceOnUse">
<stop stop-color="white"/>
<stop offset="1" stop-color="#3F79BF"/>
</linearGradient>
<linearGradient id="paint3_linear_31_24635" x1="3.875" y1="48.5397" x2="36.6812" y2="48.5397" gradientUnits="userSpaceOnUse">
<stop stop-color="white"/>
<stop offset="1" stop-color="#3F79BF"/>
</linearGradient>
<linearGradient id="paint4_linear_31_24635" x1="0.773176" y1="49.4193" x2="36.3546" y2="49.4193" gradientUnits="userSpaceOnUse">
<stop stop-color="#EEDBFE"/>
<stop offset="0.28" stop-color="#EDD8FB"/>
<stop offset="0.47" stop-color="#ECCFF5"/>
<stop offset="0.62" stop-color="#E9C0E9"/>
<stop offset="0.77" stop-color="#E5AAD9"/>
<stop offset="0.9" stop-color="#E18FC4"/>
<stop offset="1" stop-color="#DD76B1"/>
</linearGradient>
<linearGradient id="paint5_linear_31_24635" x1="65.0691" y1="10.363" x2="66.1873" y2="14.0127" gradientUnits="userSpaceOnUse">
<stop stop-color="#FFD52E"/>
<stop offset="1" stop-color="#FF8000"/>
</linearGradient>
<linearGradient id="paint6_linear_31_24635" x1="73.4455" y1="15.4438" x2="75.3669" y2="21.7207" gradientUnits="userSpaceOnUse">
<stop stop-color="#FFD52E"/>
<stop offset="1" stop-color="#FF8000"/>
</linearGradient>
<linearGradient id="paint7_linear_31_24635" x1="49.0618" y1="50.4089" x2="78.404" y2="6.22556" gradientUnits="userSpaceOnUse">
<stop stop-color="#00664B"/>
<stop offset="0.2" stop-color="#0A7D40"/>
<stop offset="0.74" stop-color="#26BB26"/>
<stop offset="1" stop-color="#31D41C"/>
</linearGradient>
<linearGradient id="paint8_linear_31_24635" x1="64.2132" y1="25.532" x2="51.9488" y2="33.5045" gradientUnits="userSpaceOnUse">
<stop stop-color="white"/>
<stop offset="1" stop-color="#3F79BF"/>
</linearGradient>
<linearGradient id="paint9_linear_31_24635" x1="72.8656" y1="27.8868" x2="52.8718" y2="40.8854" gradientUnits="userSpaceOnUse">
<stop stop-color="white"/>
<stop offset="1" stop-color="#3F79BF"/>
</linearGradient>
<linearGradient id="paint10_linear_31_24635" x1="82.7517" y1="11.6871" x2="50.6464" y2="45.1088" gradientUnits="userSpaceOnUse">
<stop stop-color="#EEDBFE"/>
<stop offset="0.28" stop-color="#EDD8FB"/>
<stop offset="0.47" stop-color="#ECCFF5"/>
<stop offset="0.62" stop-color="#E9C0E9"/>
<stop offset="0.77" stop-color="#E5AAD9"/>
<stop offset="0.9" stop-color="#E18FC4"/>
<stop offset="1" stop-color="#DD76B1"/>
</linearGradient>
<linearGradient id="paint11_linear_31_24635" x1="41.675" y1="84.0774" x2="40.6033" y2="6.18014" gradientUnits="userSpaceOnUse">
<stop stop-color="#00664B"/>
<stop offset="0.2" stop-color="#0A7D40"/>
<stop offset="0.74" stop-color="#26BB26"/>
<stop offset="1" stop-color="#31D41C"/>
</linearGradient>
<linearGradient id="paint12_linear_31_24635" x1="35.1853" y1="19.425" x2="39.1165" y2="85.1745" gradientUnits="userSpaceOnUse">
<stop stop-color="white"/>
<stop offset="1" stop-color="#3F79BF"/>
</linearGradient>
<linearGradient id="paint13_linear_31_24635" x1="46.7881" y1="12.9973" x2="46.5191" y2="77.7139" gradientUnits="userSpaceOnUse">
<stop stop-color="white"/>
<stop offset="1" stop-color="#3F79BF"/>
</linearGradient>
<linearGradient id="paint14_linear_31_24635" x1="33.0913" y1="25.1059" x2="30.3882" y2="31.9544" gradientUnits="userSpaceOnUse">
<stop stop-color="white"/>
<stop offset="1" stop-color="#3F79BF"/>
</linearGradient>
<linearGradient id="paint15_linear_31_24635" x1="32.9117" y1="31.0205" x2="32.8068" y2="23.3009" gradientUnits="userSpaceOnUse">
<stop stop-color="#FFE7DB"/>
<stop offset="1" stop-color="#FFABC1"/>
</linearGradient>
<linearGradient id="paint16_linear_31_24635" x1="33.5104" y1="23.704" x2="33.5104" y2="29.8752" gradientUnits="userSpaceOnUse">
<stop stop-color="#56054E"/>
<stop offset="1" stop-color="#C90300"/>
</linearGradient>
<linearGradient id="paint17_linear_31_24635" x1="48.1875" y1="24.3088" x2="50.131" y2="33.5622" gradientUnits="userSpaceOnUse">
<stop stop-color="white"/>
<stop offset="1" stop-color="#3F79BF"/>
</linearGradient>
<linearGradient id="paint18_linear_31_24635" x1="48.3805" y1="31.0205" x2="48.4854" y2="23.3008" gradientUnits="userSpaceOnUse">
<stop stop-color="#FFE7DB"/>
<stop offset="1" stop-color="#FFABC1"/>
</linearGradient>
<linearGradient id="paint19_linear_31_24635" x1="47.7825" y1="23.704" x2="47.7825" y2="29.8752" gradientUnits="userSpaceOnUse">
<stop stop-color="#56054E"/>
<stop offset="1" stop-color="#C90300"/>
</linearGradient>
<linearGradient id="paint20_linear_31_24635" x1="40.4001" y1="48.7321" x2="40.4001" y2="34.9421" gradientUnits="userSpaceOnUse">
<stop stop-color="#ADDCFF"/>
<stop offset="1" stop-color="#2D95D6"/>
</linearGradient>
<linearGradient id="paint21_linear_31_24635" x1="39.429" y1="29.9301" x2="40.2317" y2="38.7087" gradientUnits="userSpaceOnUse">
<stop stop-color="#FF1C1C"/>
<stop offset="1" stop-color="#8A0C61"/>
</linearGradient>
<linearGradient id="paint22_linear_31_24635" x1="35.8068" y1="36.3807" x2="35.8752" y2="33.6731" gradientUnits="userSpaceOnUse">
<stop stop-color="#FFE7DB"/>
<stop offset="1" stop-color="#FFABC1"/>
</linearGradient>
<linearGradient id="paint23_linear_31_24635" x1="44.2153" y1="36.4861" x2="44.229" y2="34.0671" gradientUnits="userSpaceOnUse">
<stop stop-color="#FFE7DB"/>
<stop offset="1" stop-color="#FFABC1"/>
</linearGradient>
<linearGradient id="paint24_linear_31_24635" x1="34.2238" y1="37.187" x2="34.3515" y2="38.1768" gradientUnits="userSpaceOnUse">
<stop stop-color="#FFE7DB"/>
<stop offset="1" stop-color="#FFABC1"/>
</linearGradient>
<linearGradient id="paint25_linear_31_24635" x1="37.4409" y1="36.2799" x2="37.5093" y2="37.297" gradientUnits="userSpaceOnUse">
<stop stop-color="#FFE7DB"/>
<stop offset="1" stop-color="#FFABC1"/>
</linearGradient>
<linearGradient id="paint26_linear_31_24635" x1="42.1352" y1="36.2753" x2="41.8658" y2="36.9588" gradientUnits="userSpaceOnUse">
<stop stop-color="#FFE7DB"/>
<stop offset="1" stop-color="#FFABC1"/>
</linearGradient>
<linearGradient id="paint27_linear_31_24635" x1="46.0658" y1="37.0862" x2="46.0157" y2="38.1903" gradientUnits="userSpaceOnUse">
<stop stop-color="#FFE7DB"/>
<stop offset="1" stop-color="#FFABC1"/>
</linearGradient>
<linearGradient id="paint28_linear_31_24635" x1="28.443" y1="11.71" x2="30.9578" y2="19.9263" gradientUnits="userSpaceOnUse">
<stop stop-color="#FFD52E"/>
<stop offset="1" stop-color="#FF8000"/>
</linearGradient>
<linearGradient id="paint29_linear_31_24635" x1="55.6985" y1="8.17775" x2="51.1315" y2="14.0851" gradientUnits="userSpaceOnUse">
<stop stop-color="#FFD52E"/>
<stop offset="1" stop-color="#FF8000"/>
</linearGradient>
<linearGradient id="paint30_linear_31_24635" x1="30.6933" y1="3.33064" x2="34.1488" y2="13.6666" gradientUnits="userSpaceOnUse">
<stop stop-color="#FFD52E"/>
<stop offset="1" stop-color="#FF8000"/>
</linearGradient>
<linearGradient id="paint31_linear_31_24635" x1="49.0621" y1="-1.09954" x2="47.4565" y2="11.3499" gradientUnits="userSpaceOnUse">
<stop stop-color="#FFD52E"/>
<stop offset="1" stop-color="#FF8000"/>
</linearGradient>
<linearGradient id="paint32_linear_31_24635" x1="32.1341" y1="34.8735" x2="33.2063" y2="39.9837" gradientUnits="userSpaceOnUse">
<stop stop-color="white"/>
<stop offset="1" stop-color="#3F79BF"/>
</linearGradient>
<linearGradient id="paint33_linear_31_24635" x1="48.0725" y1="35.721" x2="48.9393" y2="39.8504" gradientUnits="userSpaceOnUse">
<stop stop-color="white"/>
<stop offset="1" stop-color="#3F79BF"/>
</linearGradient>
<linearGradient id="paint34_linear_31_24635" x1="27.656" y1="36.6602" x2="27.6652" y2="36.6602" gradientUnits="userSpaceOnUse">
<stop stop-color="#EEDBFE"/>
<stop offset="0.28" stop-color="#EDD8FB"/>
<stop offset="0.47" stop-color="#ECCFF5"/>
<stop offset="0.62" stop-color="#E9C0E9"/>
<stop offset="0.77" stop-color="#E5AAD9"/>
<stop offset="0.9" stop-color="#E18FC4"/>
<stop offset="1" stop-color="#DD76B1"/>
</linearGradient>
<linearGradient id="paint35_linear_31_24635" x1="40.7728" y1="28.18" x2="43.1807" y2="104.062" gradientUnits="userSpaceOnUse">
<stop stop-color="#EEDBFE"/>
<stop offset="0.28" stop-color="#EDD8FB"/>
<stop offset="0.47" stop-color="#ECCFF5"/>
<stop offset="0.62" stop-color="#E9C0E9"/>
<stop offset="0.77" stop-color="#E5AAD9"/>
<stop offset="0.9" stop-color="#E18FC4"/>
<stop offset="1" stop-color="#DD76B1"/>
</linearGradient>
<linearGradient id="paint36_linear_31_24635" x1="11.9942" y1="22.3067" x2="14.2123" y2="29.551" gradientUnits="userSpaceOnUse">
<stop stop-color="#FFD52E"/>
<stop offset="1" stop-color="#FF8000"/>
</linearGradient>
<linearGradient id="paint37_linear_31_24635" x1="1.54634" y1="34.9742" x2="3.5682" y2="41.5812" gradientUnits="userSpaceOnUse">
<stop stop-color="#FFD52E"/>
<stop offset="1" stop-color="#FF8000"/>
</linearGradient>
<linearGradient id="paint38_linear_31_24635" x1="9.84946" y1="31.0251" x2="11.5244" y2="36.4995" gradientUnits="userSpaceOnUse">
<stop stop-color="#FFD52E"/>
<stop offset="1" stop-color="#FF8000"/>
</linearGradient>
<linearGradient id="paint39_linear_31_24635" x1="4.11434" y1="44.8654" x2="5.85779" y2="50.5691" gradientUnits="userSpaceOnUse">
<stop stop-color="#FFD52E"/>
<stop offset="1" stop-color="#FF8000"/>
</linearGradient>
<linearGradient id="paint40_linear_31_24635" x1="60.7476" y1="15.2514" x2="62.3085" y2="20.3545" gradientUnits="userSpaceOnUse">
<stop stop-color="#FFD52E"/>
<stop offset="1" stop-color="#FF8000"/>
</linearGradient>
<linearGradient id="paint41_linear_31_24635" x1="70.4355" y1="7.83874" x2="72.4619" y2="14.464" gradientUnits="userSpaceOnUse">
<stop stop-color="#FFD52E"/>
<stop offset="1" stop-color="#FF8000"/>
</linearGradient>
<linearGradient id="paint42_linear_31_24635" x1="67.2551" y1="13.7716" x2="68.9209" y2="19.214" gradientUnits="userSpaceOnUse">
<stop stop-color="#FFD52E"/>
<stop offset="1" stop-color="#FF8000"/>
</linearGradient>
<clipPath id="clip0_31_24635">
<rect width="76" height="80" fill="white"/>
</clipPath>
</defs>
</svg>
