<svg width="80" height="76" viewBox="0 0 80 76" fill="none" xmlns="http://www.w3.org/2000/svg">
<path d="M1.28791 51.0942C1.28791 51.0942 0.329281 49.8877 0.357339 48.9338C0.385396 47.9798 4.85122 42.3637 8.89617 43.9068C12.9411 45.45 12.712 51.5151 12.712 51.5151C12.712 51.5151 6.59078 45.3939 4.48647 47.3439C2.38215 49.2985 1.28791 51.0942 1.28791 51.0942Z" fill="#8AD132"/>
<path d="M6.64715 55.0037C6.5396 55.1533 -0.516858 60.3346 0.0302634 64.3187C0.577384 68.2982 7.25039 69.7338 7.26442 69.6169C7.27845 69.5 6.64715 55.0083 6.64715 55.0083V55.0037Z" fill="#8AD132"/>
<path d="M37.2534 66.2687C36.9962 66.1378 34.8919 63.9727 29.4114 65.1324C27.77 65.4831 25.8247 66.1284 23.5286 67.218C23.1966 67.377 22.8553 67.5453 22.5045 67.723C11.7866 73.2082 -2.10187 68.5834 0.727257 62.3266C2.23768 58.9878 4.57113 56.9396 6.27796 55.345C7.77436 53.9515 8.79846 52.9133 8.3776 51.6741C7.47976 49.018 3.44883 48.2044 3.49091 50.7295C3.52832 52.9694 4.20171 53.4277 4.03336 53.7691V53.7784C4.0053 53.8205 3.9679 53.8579 3.92113 53.9C3.44883 54.2881 0.362511 50.6313 0.792725 49.2004C1.22294 47.7741 5.80566 42.3731 9.19594 44.5569C12.5815 46.7454 13.7412 51.8004 11.7258 56.5187C11.5294 56.977 11.3377 57.454 11.16 57.9403C11.16 57.9403 11.16 57.9496 11.1553 57.9543C11.1553 57.9543 11.1553 57.9637 11.1506 57.9684C9.49522 62.4809 8.84522 67.6903 14.2136 64.4075C20.1711 60.7647 19.5725 55.7051 25.8714 56.6917C26.8862 56.8507 27.8729 57.2108 28.8128 57.6971C33.6808 60.2317 37.2534 66.2734 37.2534 66.2734V66.2687Z" fill="url(#paint0_linear_31_24907)"/>
<g style="mix-blend-mode:multiply" opacity="0.5">
<path d="M14.5595 69.7057C12.1746 68.8172 21.4056 57.1266 24.375 57.496C27.3444 57.8654 28.3545 64.7114 27.3444 65.469C26.3343 66.2266 16.7059 70.5006 14.5595 69.701V69.7057Z" fill="#91CEF4"/>
</g>
<g style="mix-blend-mode:multiply" opacity="0.5">
<path d="M23.5286 67.218C23.725 65.4597 23.7624 62.7849 22.3502 61.9291C20.1851 60.6198 12.4646 68.1532 10.2481 66.7457C8.10636 65.3895 10.9495 58.4453 11.1506 57.9637C9.4952 62.4762 8.84521 67.6856 14.2135 64.4029C20.1711 60.7601 19.5725 55.7004 25.8714 56.687C26.8862 56.846 27.8729 57.2061 28.8128 57.6924L29.416 65.1323C27.7747 65.4831 25.8293 66.1284 23.5333 67.218H23.5286Z" fill="#405A6B"/>
</g>
<path d="M10.9915 21.316C10.9915 21.316 13.3203 15.8541 17.6879 14.8581C22.0555 13.862 22.4296 16.4714 22.0134 17.575C21.5972 18.6786 20.7461 16.275 18.6278 16.1908C16.5095 16.1066 10.9915 21.316 10.9915 21.316Z" fill="#8AD132"/>
<path d="M30.7719 49.64L25.1136 48.6579L17.9122 47.4094C17.9122 47.2784 20.8255 46.4648 18.5949 43.7198C16.369 40.9795 5.3097 34.8069 9.55106 24.3461C13.7924 13.8854 19.923 14.0584 21.5129 15.6016C23.0981 17.1447 20.8676 19.9738 20.6151 19.8897C20.3579 19.8055 18.0618 15.5548 15.7424 17.6077C15.0737 18.2062 14.2507 19.0292 13.5118 20.072C13.5118 20.072 13.5118 20.072 13.5118 20.0767C12.3568 21.7041 11.3982 23.8551 11.5291 26.4645C11.5993 27.9422 12.0154 29.5648 12.9413 31.3231C16.5421 38.1785 26.7035 34.8443 29.5327 40.2921C32.3618 45.7353 30.7765 49.6353 30.7765 49.6353L30.7719 49.64Z" fill="url(#paint1_linear_31_24907)"/>
<g style="mix-blend-mode:multiply" opacity="0.5">
<path d="M30.7717 49.6399L25.1134 48.6579C22.7472 46.3899 19.53 43.0324 16.4016 38.8799C10.3926 30.9022 11.5242 26.4691 11.5242 26.4691C11.5944 27.9468 12.0106 29.5695 12.9365 31.3277C16.5372 38.1831 26.6987 34.849 29.5278 40.2968C32.3569 45.7399 30.7717 49.6399 30.7717 49.6399Z" fill="#405A6B"/>
</g>
<path d="M13.4744 44.5335C13.4323 44.3371 12.0014 38.071 15.6769 31.3886C19.3571 24.7062 30.7251 23.6494 30.7251 23.6494L13.4697 44.5335H13.4744Z" fill="#8AD132"/>
<path d="M24.8331 41.3864C24.8331 41.3864 30.0658 46.245 34.8683 49.8129C39.6708 53.3809 41.7144 59.0252 41.7144 59.0252C41.7144 59.0252 26.3482 47.4468 25.1324 44.5381C23.9166 41.6295 24.8378 41.391 24.8378 41.391L24.8331 41.3864Z" fill="#49A628"/>
<path d="M45.5397 74.2043C43.6738 76.0935 27.1153 76.3975 25.516 74.2043C24.7865 73.2129 27.3678 64.2065 23.8325 58.0245C20.5825 52.3475 11.6462 51.2954 13.6103 39.2587C13.7833 38.1879 14.0405 37.0375 14.4005 35.7843C15.0786 33.3994 16.1682 31.4634 17.5243 29.8922C18.9318 28.2649 20.6246 27.0303 22.4437 26.0951C26.1099 24.2152 30.2998 23.5559 33.7415 23.3641C37.5713 23.149 40.4706 23.5091 40.681 23.4156L40.0217 30.1868C40.0217 30.1868 26.8674 30.5048 24.0009 36.5699C23.3789 37.8932 23.5613 39.2026 24.2861 40.5166C24.2861 40.5166 24.2861 40.5182 24.2861 40.5213C26.1566 43.935 31.6325 47.4047 35.9534 51.3375C37.6181 52.8526 39.1192 54.4378 40.1713 56.1119C44.408 62.841 46.2832 73.4327 45.535 74.195L45.5397 74.2043Z" fill="url(#paint2_linear_31_24907)"/>
<g style="mix-blend-mode:multiply" opacity="0.5">
<path d="M40.6807 23.4156L40.0213 30.1868C40.0213 30.1868 26.867 30.5048 24.0005 36.5699C23.3786 37.8933 23.5609 39.2026 24.2857 40.5167C20.0912 34.8584 30.5519 25.894 33.7411 23.3595C37.571 23.1444 40.4702 23.5045 40.6807 23.4109V23.4156Z" fill="#405A6B"/>
</g>
<g style="mix-blend-mode:multiply" opacity="0.5">
<path d="M26.3058 33.3946C24.814 34.1849 26.7827 28.8447 33.6615 27.6943C37.4446 27.063 40.3766 29.7098 39.8435 29.967C39.3104 30.2241 32.1744 30.2756 26.3011 33.3946H26.3058Z" fill="#91CEF4"/>
</g>
<path style="mix-blend-mode:multiply" d="M45.5394 74.2043C43.6736 76.0935 27.115 76.3974 25.5158 74.2043C24.7863 73.2129 27.3675 64.2064 23.8323 58.0244C20.5823 52.3475 11.646 51.2953 13.61 39.2587C13.596 39.4738 13.2874 45.3238 19.2402 51.0007C25.3053 56.7852 39.3154 58.2629 35.9578 51.3468C36.8603 52.1651 37.7114 53.0068 38.469 53.8673C39.1143 54.5968 39.6941 55.345 40.1758 56.1165C41.3168 57.9216 42.2848 60.0072 43.0751 62.1068C45.2355 67.8259 46.0866 73.6431 45.5394 74.1996V74.2043Z" fill="url(#paint3_linear_31_24907)"/>
<g style="mix-blend-mode:multiply" opacity="0.8">
<path d="M26.0675 55.9015C23.4722 55.2281 26.9934 73.3673 27.9193 74.3259C28.8452 75.2798 38.0013 76.5985 39.4322 74.7748C40.8631 72.9511 35.4714 58.3471 26.0628 55.9015H26.0675Z" fill="#91CEF4"/>
</g>
<g style="mix-blend-mode:screen" opacity="0.5">
<path d="M24.071 31.6364C25.5487 29.1486 12.3055 35.99 15.1113 43.6543C17.9217 51.3187 26.7084 55.0831 30.8656 54.9989C35.0228 54.9148 36.0328 52.4457 34.9947 51.4309C33.9566 50.4209 18.567 40.9 24.071 31.6317V31.6364Z" fill="#525300"/>
</g>
<g style="mix-blend-mode:multiply" opacity="0.5">
<path d="M43.0749 62.1115C41.2792 62.2097 38.5296 62.0133 36.9397 60.2457C34.8821 57.9637 37.0379 55.1626 38.4735 53.8673C39.1188 54.5968 39.6987 55.345 40.1803 56.1166C41.3213 57.9216 42.2893 60.0072 43.0796 62.1069L43.0749 62.1115Z" fill="#417696"/>
</g>
<g style="mix-blend-mode:multiply" opacity="0.5">
<path d="M38.5437 63.3881C37.1221 64.0942 40.0822 68.1672 41.0268 67.2413C41.9714 66.3154 39.8484 62.7381 38.5437 63.3881Z" fill="#417696"/>
</g>
<g style="mix-blend-mode:multiply" opacity="0.5">
<path d="M35.612 61.1342C34.658 61.4054 36.6875 63.3227 36.7717 62.5651C36.8559 61.8076 36.0562 61.008 35.612 61.1342Z" fill="#417696"/>
</g>
<g style="mix-blend-mode:multiply" opacity="0.5">
<path d="M21.6766 29.1019C19.9745 30.1073 18.3986 30.299 17.5194 29.8922C18.927 28.2649 20.6198 27.0303 22.4388 26.0951C22.6773 27.1379 22.7288 28.48 21.6719 29.1019H21.6766Z" fill="#91CEF4"/>
</g>
<g style="mix-blend-mode:multiply" opacity="0.5">
<path d="M24.2766 26.198C23.6032 26.3242 22.2284 28.0217 23.5892 28.0357C24.95 28.0498 25.3288 26.0016 24.2766 26.198Z" fill="#91CEF4"/>
</g>
<g style="mix-blend-mode:multiply" opacity="0.5">
<path d="M22.6775 29.0785C22.2426 29.0224 21.934 29.6677 22.2707 29.8361C22.6074 30.0044 23.3883 29.1674 22.6775 29.0785Z" fill="#91CEF4"/>
</g>
<g style="mix-blend-mode:screen" opacity="0.5">
<path d="M19.7827 33.5771C18.0899 33.9418 14.8773 37.767 15.1719 40.9702C15.4665 44.1734 18.5622 45.0573 19.3852 43.4112C20.2082 41.7699 22.9251 32.9037 19.7874 33.5771H19.7827Z" fill="#525300"/>
</g>
<g style="mix-blend-mode:multiply" opacity="0.5">
<path d="M8.59714 53.395C7.85829 54.1198 7.05397 54.7792 6.28239 55.345C7.14749 54.5407 7.85828 53.8533 8.21835 53.1752C8.48022 52.6842 8.55972 52.1932 8.38202 51.6695C7.59642 49.3454 4.41656 48.4335 3.65901 49.9299C3.54678 50.145 3.48599 50.4115 3.49067 50.7295C3.52808 52.9695 4.20146 53.4277 4.03311 53.7691L4.04714 53.727C4.04714 53.727 1.60614 51.9641 1.94751 50.1637C2.2842 48.368 6.49749 44.8515 8.32123 45.74C10.145 46.6285 11.0522 50.982 8.59245 53.395H8.59714Z" fill="#405A6B"/>
</g>
<g style="mix-blend-mode:multiply" opacity="0.5">
<path d="M20.6152 19.8897C20.358 19.8055 18.062 15.5548 15.7426 17.6077C15.0739 18.2063 14.2509 19.0293 13.512 20.0721C14.6016 17.2336 17.5196 15.2696 19.058 15.5876C20.5965 15.9055 20.6152 19.8897 20.6152 19.8897Z" fill="#405A6B"/>
</g>
<path d="M18.5483 49.8176C18.1087 49.8644 19.0439 52.3335 19.5256 51.7957C20.0119 51.2579 19.7781 49.6914 18.5483 49.8176Z" fill="#0A4212"/>
<path d="M18.6508 50.9307C18.6414 50.8278 19.2259 51.3375 19.3569 51.0709C19.4925 50.8044 19.4083 50.2245 19.586 50.3461C19.7637 50.463 19.773 51.9314 19.4083 51.8706C19.0436 51.8051 18.6695 51.1224 18.6508 50.9353V50.9307Z" fill="#48A644"/>
<g style="mix-blend-mode:multiply" opacity="0.5">
<path d="M8.37266 53.0631C8.32122 53.1051 8.26979 53.1426 8.22302 53.1753C8.48489 52.6843 8.56439 52.1933 8.38669 51.6695C7.60108 49.3454 4.42124 48.4336 3.66368 49.93C3.63095 49.8037 3.61224 49.7055 3.61224 49.64C3.61224 48.6674 6.83885 45.4688 8.05 45.8289C9.26115 46.189 11.1129 50.8839 8.37266 53.0584V53.0631Z" fill="#405A6B"/>
</g>
<g style="mix-blend-mode:screen" opacity="0.5">
<path d="M11.445 52.4924C10.5098 51.8331 -0.956382 60.7226 0.951527 64.1456C2.85944 67.5687 8.41949 65.3241 8.90115 64.1456C9.37812 62.9672 12.731 53.3903 11.445 52.4924Z" fill="#525300"/>
</g>
<g style="mix-blend-mode:screen" opacity="0.5">
<path d="M19.0438 15.3818C18.7399 15.2462 21.4755 15.176 21.7748 16.1581C22.074 17.1354 21.0219 19.7681 20.9097 19.4595C20.7974 19.1509 20.4233 15.9991 19.0392 15.3818H19.0438Z" fill="#525300"/>
</g>
<g style="mix-blend-mode:screen" opacity="0.5">
<path d="M12.5533 21.0634C12.8993 20.1655 8.12957 25.1364 8.83101 29.7565C9.53244 34.3767 13.8299 36.1583 13.6195 35.4428C13.409 34.7274 9.49035 29.0411 12.5533 21.0634Z" fill="#525300"/>
</g>
<g style="mix-blend-mode:screen" opacity="0.5">
<path d="M0.895291 63.3975C0.549249 62.7475 2.705 59.086 3.6496 58.7353C4.58953 58.3846 9.40606 62.654 8.67657 63.4676C7.94707 64.2813 2.20464 65.8385 0.899965 63.3975H0.895291Z" fill="#525300"/>
</g>
<g style="mix-blend-mode:screen" opacity="0.5">
<path d="M3.52788 47.3113C3.05558 46.839 6.21205 43.9958 7.60557 44.1642C8.99442 44.3325 9.6678 46.376 9.4714 46.2498C9.27032 46.1235 8.51276 45.5343 7.84874 45.5016C7.18471 45.4688 3.85522 47.6386 3.53256 47.3113H3.52788Z" fill="#525300"/>
</g>
<g style="mix-blend-mode:multiply" opacity="0.5">
<path d="M67.9155 8.41418C67.9155 8.41418 68.9489 12.1458 67.4525 13.6469C65.9561 15.148 62.9212 14.6476 62.9212 14.6476L67.9108 8.41418H67.9155Z" fill="#D651BE"/>
</g>
<path style="mix-blend-mode:multiply" d="M53.7232 15.0171C53.7232 15.0171 50.3096 19.4268 54.7005 19.3566C59.33 19.2865 67.5088 12.4545 67.5088 12.4545L53.7232 15.0171Z" fill="url(#paint4_linear_31_24907)"/>
<path d="M64.8853 14.657C64.1978 14.8581 55.4954 16.1814 53.9382 15.2228C52.381 14.2642 52.9702 4.57967 60.4569 3.03651C67.9435 1.49335 70.8194 12.9034 64.8806 14.657H64.8853Z" fill="url(#paint5_linear_31_24907)"/>
<path style="mix-blend-mode:screen" opacity="0.5" d="M65.7881 5.47747C65.7787 5.42603 63.2582 2.0264 60.0831 3.53683C56.9079 5.04726 57.3147 9.37278 57.3147 9.37278L65.7881 5.47747Z" fill="url(#paint6_linear_31_24907)"/>
<path style="mix-blend-mode:multiply" d="M60.7889 3.68652C58.7921 4.21961 58.0346 5.55702 58.0346 5.55702C58.0346 5.55702 58.7781 3.52753 61.5184 3.07393C62.8885 2.8448 63.8425 3.31242 64.4551 3.83148C66.2367 5.11745 68.4673 8.06816 68.8274 10.5419C69.1874 13.0156 68.7011 13.9883 67.8407 14.4138C66.9803 14.8347 61.0227 14.5494 59.7929 13.6984C58.9091 13.0858 64.5954 9.31205 65.7831 6.41277C65.9468 6.01997 65.5446 5.29983 65.1425 4.71997C64.6468 4.21494 63.1925 3.04588 60.7889 3.68652Z" fill="url(#paint7_linear_31_24907)"/>
<path d="M58.1327 12.5152C58.5068 13.0296 59.1101 13.4177 59.8349 13.7076C62.4302 14.7411 66.5921 14.4792 67.4245 14.0303C67.8032 13.8245 68.0651 13.4691 68.2194 13.0015C68.7993 11.2807 67.9435 8.11952 66.204 5.95442C66.1759 5.92169 64.8852 6.31449 63.2906 6.82888C62.8417 6.97384 62.3694 7.13284 61.8925 7.28715C60.2371 7.83895 58.5536 8.43283 57.7446 8.78355C57.5622 8.86305 57.4266 8.92851 57.3425 8.97995C57.3051 9.00333 57.277 9.02671 57.263 9.04074C57.263 9.04074 57.2489 9.05945 57.2536 9.06412C57.2583 9.46161 57.2863 9.85441 57.3378 10.2285C57.4547 11.117 57.7072 11.9213 58.1374 12.5105L58.1327 12.5152Z" fill="url(#paint8_linear_31_24907)"/>
<path d="M57.5249 11.4444C57.8288 12.6602 58.7594 13.4552 59.8349 13.7077C61.1911 14.021 62.7716 13.4786 63.6367 11.8138C64.4831 10.1818 64.1511 8.23649 63.2907 6.83362C62.8418 6.97858 62.3695 7.13757 61.8925 7.29189C60.2371 7.84369 58.5536 8.43757 57.7447 8.78829C57.5623 8.86779 57.4267 8.93325 57.3425 8.98469C57.3051 9.40088 57.3051 9.81706 57.3378 10.2379C57.3706 10.6494 57.4313 11.0609 57.5295 11.4491L57.5249 11.4444Z" fill="url(#paint9_linear_31_24907)"/>
<g style="mix-blend-mode:multiply">
<path d="M57.8428 10.8598C58.3385 12.8519 61.1583 13.2962 62.2852 11.1264C62.9446 9.85913 62.6219 8.32532 61.8924 7.29187C60.237 7.84367 58.5536 8.43755 57.7446 8.78827C57.6464 9.47568 57.6791 10.2005 57.8475 10.8598H57.8428Z" fill="#9A5EA3"/>
</g>
<g style="mix-blend-mode:multiply" opacity="0.75">
<path d="M57.2586 9.0455C57.2586 9.0455 63.9877 6.4081 66.3632 8.46097C68.7388 10.5138 68.2057 13.039 68.215 13.0063C68.7949 11.2854 67.9391 8.12428 66.1996 5.95918C66.1715 5.92645 64.8809 6.31925 63.2863 6.83364C62.8373 6.9786 62.365 7.1376 61.8881 7.29191C60.2327 7.84371 58.5492 8.43759 57.7402 8.78831C57.5579 8.86781 57.4222 8.93327 57.3381 8.98471C57.3007 9.00809 57.2726 9.03148 57.2586 9.0455Z" fill="#C77FBF"/>
</g>
<path d="M63.6742 8.47501C64.3055 8.23652 65.4605 8.88184 64.6141 9.44767C63.7677 10.0135 62.9587 8.74156 63.6742 8.47501Z" fill="white"/>
<g style="mix-blend-mode:soft-light" opacity="0.5">
<path d="M63.8472 10.2706C64.6141 10.4249 63.1318 13.2915 60.7796 13.5253C58.4275 13.7591 57.1836 11.7857 57.8944 11.262C58.6052 10.7383 63.1552 10.1257 63.8472 10.266V10.2706Z" fill="#FFED7A"/>
</g>
<path d="M57.2588 9.04542C57.2588 9.04542 59.971 7.89506 62.903 7.11881C65.835 6.34723 66.7095 6.48284 66.7095 6.48284C66.7095 6.48284 66.3634 5.41665 65.9145 5.29507C65.4656 5.16881 58.3717 8.026 57.2588 9.04542Z" fill="#440A21"/>
<g style="mix-blend-mode:multiply" opacity="0.5">
<path d="M55.4067 10.0743C54.9811 9.92464 54.4901 10.7103 54.607 11.2387C54.7239 11.7624 55.3365 12.2955 55.4441 11.912C55.5469 11.5286 55.5703 10.1351 55.4067 10.0743Z" fill="#91CEF4"/>
</g>
<g style="mix-blend-mode:multiply" opacity="0.5">
<path d="M54.7751 8.48907C54.2466 8.57325 53.8164 10.0743 54.4103 10.079C55.0042 10.079 55.1398 8.43296 54.7751 8.48907Z" fill="#91CEF4"/>
</g>
<g style="mix-blend-mode:multiply" opacity="0.5">
<path d="M55.776 8.3487C55.4861 8.26453 55.3177 8.73683 55.4767 8.91452C55.6357 9.09222 56.0846 8.43755 55.776 8.3487Z" fill="#91CEF4"/>
</g>
<path style="mix-blend-mode:multiply" d="M54.247 8.2131C54.4714 8.16166 59.157 4.0793 61.7804 4.06994C64.4038 4.06059 67.1254 5.91238 67.0318 5.88433C66.9383 5.86095 63.8988 2.12462 61.0649 2.5829C58.2358 3.03649 54.247 8.2131 54.247 8.2131Z" fill="url(#paint10_linear_31_24907)"/>
<path d="M67.0693 6.13683C67.0693 6.13683 67.0693 6.13215 67.0647 6.12747C67.0647 6.1228 67.06 6.11344 67.0553 6.10409C67.0553 6.09474 67.046 6.08071 67.0413 6.07136C67.0413 6.05733 67.0319 6.0433 67.0226 6.02927C66.8121 5.61309 65.9143 4.21021 62.9215 3.34978C59.3722 2.33036 54.8363 8.24581 54.2424 8.29725C54.0039 8.32063 54.4902 7.07208 55.3179 5.5523C56.6179 3.15806 58.7456 0.0997911 60.1438 0.310222C61.8787 0.567416 62.8934 1.39979 63.2816 1.78324C63.3143 1.82065 63.3424 1.84871 63.3657 1.87677C63.3517 1.85806 63.3377 1.83935 63.319 1.82065C63.2208 1.70374 63.0945 1.52605 62.9683 1.32029C62.856 1.13324 63.0945 0.918134 63.5341 0.866696C64.0251 0.805904 64.7639 0.946192 65.5589 1.54943C67.0179 2.6577 67.0693 5.93575 67.0693 6.13683Z" fill="url(#paint11_linear_31_24907)"/>
<g style="mix-blend-mode:multiply">
<path d="M67.0176 6.02463C66.9194 5.82823 66.6762 5.42139 66.1338 4.95377C65.5118 4.416 64.5158 3.80341 62.9165 3.34514C61.4341 2.9196 59.7787 3.70521 58.3057 4.76672C56.2622 6.24441 54.5788 8.25987 54.2374 8.29261C53.9989 8.31599 54.4852 7.06743 55.3129 5.54765C55.3129 5.54765 55.0604 6.4034 55.4579 6.47822C55.8507 6.55304 60.1482 1.32032 62.4536 2.15737C62.5471 2.19011 62.6359 2.22752 62.7295 2.26025C62.7388 2.26493 62.7482 2.2696 62.7575 2.27428C65.6848 3.44334 66.7744 5.50556 67.0082 6.01995L67.0176 6.02463Z" fill="#91CEF4"/>
</g>
<g style="mix-blend-mode:multiply" opacity="0.5">
<path d="M67.0693 6.13762C67.0693 6.13762 67.0693 6.12774 67.0644 6.1228C67.0644 6.12774 67.0644 6.13268 67.0693 6.13268V6.13762Z" fill="#91CEF4"/>
</g>
<g style="mix-blend-mode:multiply">
<path d="M66.1387 4.95385C65.5167 4.41608 64.5207 3.80349 62.9214 3.34522C61.439 2.91968 59.7837 3.70529 58.3106 4.7668C58.97 3.97651 61.1164 1.70386 62.4631 2.16213C62.5567 2.19486 62.6455 2.23227 62.739 2.26501C62.7484 2.26968 62.7577 2.27436 62.7671 2.27903C64.0671 2.82148 65.5588 4.0373 66.1387 4.95385Z" fill="#91CEF4"/>
</g>
<g style="mix-blend-mode:multiply">
<path d="M64.5532 2.83072C64.427 2.72785 63.5198 1.98432 63.3187 1.82065C63.2205 1.70375 63.0942 1.52605 62.968 1.3203C62.8557 1.13325 63.0942 0.918138 63.5338 0.866699C63.5338 0.866699 63.1503 0.922814 63.3888 1.40914C63.6086 1.86274 64.4363 2.71382 64.5532 2.8354V2.83072Z" fill="#91CEF4"/>
</g>
<path style="mix-blend-mode:multiply" d="M67.8407 14.4138C67.5367 14.5634 66.5968 14.6242 65.4511 14.6008C65.1986 14.6476 64.9461 14.6803 64.7029 14.699C64.6515 14.7084 64.5907 14.7224 64.5206 14.7364C61.7148 16.7285 57.5436 19.3145 54.7051 19.3613C50.3141 19.4314 53.7278 15.0217 53.7278 15.0217H53.7324C53.045 14.1052 52.9889 11.0936 54.2188 8.29258C54.0458 8.21308 54.5274 7.00661 55.3224 5.55697C56.6177 3.15806 58.7454 0.0997909 60.1436 0.310222C61.8785 0.567416 62.8932 1.39979 63.2813 1.78324C63.3141 1.82065 63.3421 1.84871 63.3655 1.87676C63.3515 1.85806 63.3375 1.83935 63.3188 1.82065C63.2206 1.70374 63.0943 1.52605 62.968 1.32029C62.8558 1.13324 63.0943 0.918134 63.5339 0.866695C64.0249 0.805904 64.7637 0.946192 65.5587 1.54943C67.0177 2.6577 67.0691 5.93575 67.0691 6.13683C67.0691 6.13683 67.0691 6.12747 67.0644 6.1228C67.0644 6.11812 67.0598 6.10877 67.0551 6.09942C67.0551 6.09006 67.0457 6.07603 67.041 6.06668C67.041 6.05265 67.0317 6.03862 67.0223 6.0246C67.0083 6.00121 66.9943 5.97316 66.9756 5.94042C66.9662 5.92639 66.9569 5.91237 66.9475 5.89366C66.9335 5.87496 66.9241 5.85157 66.9101 5.83287C66.9008 5.81884 66.8914 5.80481 66.8821 5.79078C66.8774 5.78143 66.868 5.77208 66.8634 5.76273C66.8493 5.75337 66.84 5.7487 66.8259 5.73934C67.1954 6.30985 67.4853 6.92711 67.6957 7.57243C68.2662 8.55445 68.6871 9.5879 68.8274 10.5465C69.1874 13.0203 68.7011 13.9929 67.8407 14.4185V14.4138ZM66.681 5.51956C66.681 5.51956 66.709 5.54762 66.7231 5.56632C66.7137 5.55229 66.6997 5.53827 66.6857 5.52424C66.6716 5.50553 66.6529 5.48683 66.6342 5.46345C66.6482 5.48215 66.6623 5.50086 66.6763 5.51956H66.681Z" fill="url(#paint12_linear_31_24907)"/>
<path d="M39.0115 26.4692C39.0115 26.357 38.6655 18.1081 43.0284 13.1466C47.3914 8.18506 39.0115 26.4692 39.0115 26.4692Z" fill="#FF99DE"/>
<path d="M79.6948 30.1681C79.3347 30.7994 78.0441 30.9023 77.9833 31.0613C77.843 31.44 76.8984 36.6915 68.9254 40.54C68.5139 40.7411 68.079 40.9328 67.6301 41.1245C66.2833 41.6904 64.7635 42.2141 63.0473 42.6817C62.2009 42.9109 61.3499 43.1026 60.5081 43.2522C50.5524 45.0666 41.1157 41.7652 39.8765 35.0641C39.4276 32.6465 39.1237 30.3271 39.0348 28.1105C38.9834 26.8433 39.0068 25.6041 39.1143 24.4023C39.1798 23.64 39.2827 22.8918 39.4136 22.1577C39.8251 19.9785 40.5593 17.907 41.7143 15.9476C47.424 6.24909 61.5977 6.55772 66.5966 7.32462C72.0959 8.16635 75.4441 11.8746 76.8142 14.0631C76.8236 14.0771 76.8282 14.0865 76.8376 14.0958C77.193 14.6663 77.4081 15.1293 77.497 15.4052C77.9131 16.7566 76.3606 16.7753 74.2002 17.4908C72.5962 18.0239 68.107 17.3271 61.7427 25.3656C55.3783 33.4041 69.9074 32.1836 73.1901 31.2156C76.4682 30.2523 78.9139 27.1659 79.489 27.1659C80.0642 27.1659 80.1811 29.331 79.6995 30.1728L79.6948 30.1681Z" fill="url(#paint13_linear_31_24907)"/>
<path style="mix-blend-mode:multiply" d="M68.9253 40.54C67.2839 41.335 65.3433 42.0645 63.0472 42.6818C52.2124 45.6044 41.2232 42.331 39.8718 35.0688C39.1657 31.2717 38.8149 27.7178 39.1095 24.407C39.5912 28.7559 40.3394 37.1638 47.7933 40.6149C54.2933 43.6217 63.3559 42.6256 68.9253 40.54Z" fill="url(#paint14_linear_31_24907)"/>
<g style="mix-blend-mode:multiply" opacity="0.5">
<path d="M64.7731 35.9153C62.304 35.9153 70.8569 38.6181 72.6292 37.8606C74.4015 37.103 76.6321 33.1002 75.9867 33.0721C75.3414 33.044 65.4418 35.9153 64.7731 35.9153Z" fill="#D651BE"/>
</g>
<path style="mix-blend-mode:multiply" d="M79.6948 30.1681C79.3347 30.7994 78.1049 30.9396 77.9833 31.0612C76.7534 32.3519 68.5279 35.4569 62.7153 35.5317C56.0797 35.6112 46.1053 34.199 46.1053 30.4066C46.1053 28.3022 52.5679 29.621 56.6128 26.4177C59.5589 24.0843 61.8128 10.0696 68.874 9.83107C75.5563 9.60661 76.6365 13.8059 76.8142 14.0631C76.8236 14.0771 76.8282 14.0818 76.8282 14.0818L76.8376 14.0958C77.193 14.6663 77.4081 15.1293 77.497 15.4052C77.9131 16.7566 76.3606 16.7753 74.2002 17.4908C72.5962 18.0239 68.107 17.3271 61.7427 25.3656C55.3783 33.404 69.9074 32.1835 73.1901 31.2155C76.4682 30.2522 78.9139 27.1659 79.489 27.1659C80.0642 27.1659 80.1811 29.331 79.6995 30.1727L79.6948 30.1681Z" fill="url(#paint15_linear_31_24907)"/>
<path style="mix-blend-mode:multiply" d="M60.9992 18.9216C61.0039 18.8936 63.9079 10.4483 68.2989 9.9713C72.6899 9.49432 76.4309 14.0958 76.7114 15.2882C76.992 16.4806 75.6873 16.7098 75.6873 16.7098C75.6873 16.7098 60.7608 20.3339 60.9992 18.9216Z" fill="url(#paint16_linear_31_24907)"/>
<path d="M76.9355 29.1486C76.9355 29.1486 76.8981 29.186 76.8186 29.2468C76.496 29.504 75.5186 30.2288 73.7791 31.0612C73.1197 31.3839 72.3481 31.7159 71.4597 32.0432C70.2532 32.4921 68.8363 32.9317 67.1902 33.3105C66.4327 33.4835 65.6237 33.6472 64.7726 33.7921C64.0057 33.9231 63.1967 34.0353 62.3457 34.1335C61.7939 34.199 61.2374 34.2364 60.6762 34.2551C53.6619 34.4936 46.2173 31.44 46.5493 30.5047C47.045 29.1065 52.0719 29.4713 55.668 27.4324C56.8324 26.7731 57.8471 25.8612 58.5065 24.5565C58.7029 24.1731 58.8899 23.7896 59.077 23.4015C59.3435 22.8357 59.6054 22.2745 59.8626 21.7181C60.6154 20.0814 61.3262 18.4868 62.1072 17.0652C62.5234 16.3123 62.9536 15.6109 63.4259 14.9749C64.4593 13.572 65.6611 12.5152 67.1996 12.0195C67.3025 11.9868 67.4054 11.9541 67.5082 11.9354C67.8215 11.8559 68.1395 11.8044 68.4528 11.781C69.6546 11.6969 70.8798 11.9821 72.0068 12.4451C72.5866 12.6789 73.1384 12.9641 73.6481 13.2681C74.7471 13.9134 75.6356 14.6429 76.164 15.1807C76.496 15.5174 76.683 15.7839 76.6784 15.8961C76.669 16.3123 75.7665 16.7659 74.4665 17.3598C74.1953 17.4861 73.9007 17.617 73.5967 17.7573C73.0683 17.9958 72.4978 18.2623 71.9086 18.5569C71.6701 18.6738 71.4316 18.7954 71.1931 18.9217C71.0622 18.9918 70.9312 19.062 70.8003 19.1321C70.0755 19.5296 69.346 19.9785 68.6586 20.4835C68.4762 20.6145 68.2938 20.7548 68.1161 20.895C67.3399 21.517 66.6385 22.2184 66.0679 23.0181C64.969 24.5706 64.3939 26.4878 64.8474 28.8774C64.9269 29.2936 65.4741 29.5461 66.2924 29.6817C66.8302 29.7752 67.4755 29.8173 68.191 29.8267C68.6539 29.8314 69.1449 29.8267 69.65 29.8033C69.8136 29.7986 69.9726 29.7893 70.1363 29.7799C71.5579 29.7098 73.0309 29.5648 74.242 29.4292C75.4391 29.2983 76.3791 29.1767 76.7532 29.1533C76.8467 29.1439 76.9028 29.1439 76.9215 29.1486H76.9355Z" fill="#520917"/>
<path d="M70.1504 29.78C69.9867 29.7893 69.8277 29.7987 69.6641 29.8033C69.159 29.822 68.6727 29.8314 68.2051 29.8267C67.4896 29.8174 66.8396 29.7753 66.3065 29.6818C66.6479 28.8494 67.3213 27.3951 67.9151 27.2361C68.5511 27.0677 69.65 28.8774 70.1504 29.78Z" fill="url(#paint17_linear_31_24907)"/>
<path style="mix-blend-mode:multiply" d="M70.1504 29.78C69.9867 29.7893 69.8277 29.7987 69.6641 29.8033C69.159 29.822 68.6727 29.8314 68.2051 29.8267C67.4896 29.8174 66.8396 29.7753 66.3065 29.6818C66.6479 28.8494 67.3213 27.3951 67.9151 27.2361C68.5511 27.0677 69.65 28.8774 70.1504 29.78Z" fill="url(#paint18_linear_31_24907)"/>
<path d="M59.0864 24.0282C59.0864 25.5527 58.9274 27.4279 58.4505 27.7038C58.2447 27.8207 57.9174 27.8768 57.5479 27.8815C56.912 27.8861 56.1497 27.7225 55.6681 27.4325C56.8325 26.7732 57.8472 25.8613 58.5066 24.5566C58.703 24.1732 58.89 23.7897 59.0771 23.4016C59.0864 23.598 59.0864 23.8084 59.0864 24.0282Z" fill="url(#paint19_linear_31_24907)"/>
<path d="M64.7725 33.7922C64.0056 33.9231 63.1966 34.0353 62.3455 34.1335C61.7937 34.199 61.2372 34.2364 60.6761 34.2551C60.8257 33.2404 61.3682 30.9537 61.9901 30.8648C62.5699 30.776 64.0991 32.8335 64.7725 33.7922Z" fill="url(#paint20_linear_31_24907)"/>
<path d="M62.3133 22.3261C62.1543 22.4243 61.9298 22.4757 61.6773 22.4804C61.0928 22.4944 60.3493 22.2513 59.8582 21.7182C60.6111 20.0815 61.3219 18.4869 62.1028 17.0653C62.1449 17.2991 62.187 17.547 62.2291 17.7995C62.5331 19.698 62.7856 22.0408 62.3086 22.3261H62.3133Z" fill="url(#paint21_linear_31_24907)"/>
<path d="M67.5132 11.9353C67.4898 12.1831 67.4617 12.459 67.429 12.7536C67.2279 14.4652 66.793 16.7425 65.8251 16.9389C65.797 16.9482 65.7596 16.9529 65.7269 16.9529C64.801 17.0558 63.7909 15.9756 63.4261 14.9795C64.4596 13.5767 65.6614 12.5198 67.1999 12.0242C67.3028 11.9914 67.4056 11.9587 67.5085 11.94L67.5132 11.9353Z" fill="url(#paint22_linear_31_24907)"/>
<path d="M72.0117 12.4451C71.965 12.5761 71.9088 12.7304 71.848 12.8894C71.4927 13.8293 70.9034 15.1153 70.3844 15.0311C70.0243 14.9703 69.5894 14.2969 69.2153 13.5487C68.888 12.9034 68.6074 12.1973 68.4578 11.7858C69.6596 11.7016 70.8847 11.9869 72.0117 12.4498V12.4451Z" fill="url(#paint23_linear_31_24907)"/>
<path d="M76.1738 15.176C76.0242 15.3911 75.8465 15.639 75.6548 15.8681C75.2713 16.3264 74.8271 16.7192 74.4576 16.7051C73.9853 16.6911 73.7936 15.5922 73.7141 14.5447C73.6767 14.0724 73.6627 13.6095 73.658 13.2634C74.7569 13.9087 75.6454 14.6382 76.1738 15.176Z" fill="url(#paint24_linear_31_24907)"/>
<path d="M68.126 20.8951C68.0044 22.3774 67.9109 24.0983 67.3778 24.0796C66.6623 24.0515 66.0871 23.0789 66.0778 23.0181C66.6436 22.2184 67.3497 21.5123 68.126 20.8904V20.8951Z" fill="url(#paint25_linear_31_24907)"/>
<path d="M70.8098 19.1322C70.9408 19.062 71.0717 18.9919 71.2026 18.9218C71.0811 20.2264 70.7771 22.1016 70.0616 21.9473C69.4818 21.8164 68.9814 21.1617 68.6681 20.4836C69.3555 19.9786 70.085 19.5343 70.8098 19.1322Z" fill="url(#paint26_linear_31_24907)"/>
<path d="M74.4761 17.3599C74.3405 18.6412 74.0318 20.2732 73.3631 20.1282C72.7552 19.9926 72.2315 19.2724 71.9182 18.557C72.5027 18.2624 73.0779 18.0005 73.6063 17.7573C73.9102 17.6171 74.2049 17.4861 74.4761 17.3599Z" fill="url(#paint27_linear_31_24907)"/>
<path style="mix-blend-mode:multiply" d="M68.126 20.8951C68.0044 22.3774 67.9109 24.0983 67.3778 24.0796C66.6623 24.0515 66.0871 23.0789 66.0778 23.0181C66.6436 22.2184 67.3497 21.5123 68.126 20.8904V20.8951Z" fill="url(#paint28_linear_31_24907)"/>
<path style="mix-blend-mode:multiply" d="M70.8098 19.1322C70.9408 19.062 71.0717 18.9919 71.2026 18.9218C71.0811 20.2264 70.7771 22.1016 70.0616 21.9473C69.4818 21.8164 68.9814 21.1617 68.6681 20.4836C69.3555 19.9786 70.085 19.5343 70.8098 19.1322Z" fill="url(#paint29_linear_31_24907)"/>
<path style="mix-blend-mode:multiply" d="M74.4761 17.3599C74.3405 18.6412 74.0318 20.2732 73.3631 20.1282C72.7552 19.9926 72.2315 19.2724 71.9182 18.557C72.5027 18.2624 73.0779 18.0005 73.6063 17.7573C73.9102 17.6171 74.2049 17.4861 74.4761 17.3599Z" fill="url(#paint30_linear_31_24907)"/>
<path d="M76.814 29.2468C76.4913 29.504 75.514 30.2288 73.7744 31.0612C73.8913 30.7058 74.0503 30.0698 74.2514 29.4292C74.5413 28.4986 74.9107 27.5727 75.3222 27.5166C75.6776 27.4698 76.0938 27.9889 76.4586 28.6062C76.5661 28.7839 76.6643 28.9662 76.7578 29.1486C76.7766 29.1767 76.7953 29.2141 76.8093 29.2421L76.814 29.2468Z" fill="url(#paint31_linear_31_24907)"/>
<path style="mix-blend-mode:multiply" d="M67.6299 41.1245C66.2831 41.6904 64.7633 42.2141 63.0472 42.6817C62.2008 42.9109 61.3497 43.1026 60.508 43.2522L57.8098 40.3342L58.9695 31.8702L67.1903 33.0674C67.1903 33.0674 64.74 34.1008 64.595 36.8598C64.5202 38.2533 66.0727 39.8713 67.6299 41.1245Z" fill="url(#paint32_linear_31_24907)"/>
<path d="M52.2079 29.3965C51.9975 29.4199 46.1802 30.2382 44.1601 35.022C42.14 39.8011 48.8971 47.2177 49.0655 47.386C49.2338 47.5543 50.1597 52.5252 50.1597 52.5252C50.1597 52.5252 50.8144 54.3863 49.0234 55.0691C47.2324 55.7518 45.3759 55.2795 45.0299 54.8914C44.6838 54.5033 43.6504 52.7122 43.6504 52.7122C43.6504 52.7122 42.0932 55.7471 47.1716 60.1896C52.2453 64.632 57.8101 63.3881 57.8101 63.3881L52.2079 29.3965Z" fill="#FF99DE"/>
<path d="M62.8278 36.2753C61.7429 40.6289 76.4076 50.9073 64.9461 60.3439C62.8371 62.0788 60.7048 63.0234 58.6332 63.3882C49.4537 65.0062 41.5976 55.2468 43.4073 52.8245C43.4775 52.7357 43.557 52.7029 43.6505 52.7123C44.1134 52.7544 44.8897 53.886 45.8249 54.5875C46.9472 55.4292 51.1605 55.1486 49.248 49.308C48.5746 47.2364 47.1951 45.2397 46.0307 43.2335C43.9124 39.5767 42.5001 35.8918 47.326 31.6879C48.4904 30.6731 50.9922 29.4246 53.0123 29.2937C53.681 29.2516 54.4199 29.3077 55.14 29.3965C56.5943 29.5789 57.9551 29.9109 58.4041 29.8267C58.4882 29.808 58.5958 29.7566 58.722 29.6724C59.2037 29.3638 59.9706 28.6483 61.1537 28.2321C62.0188 27.9282 63.1084 27.7785 64.4691 28.0591C68.1774 28.8167 70.0713 32.5249 70.0713 32.5249C70.0713 32.5249 68.7947 32.4969 67.186 33.3106C65.9235 33.9512 63.1832 34.8444 62.8231 36.2753H62.8278Z" fill="url(#paint33_linear_31_24907)"/>
<path d="M71.4602 32.0433C70.2537 32.4922 68.8368 32.9317 67.1908 33.3105C67.2936 32.6558 67.5461 31.3652 67.9156 30.4346C68.0044 30.2055 68.1026 29.9997 68.2102 29.8267C68.3832 29.5461 68.5749 29.3638 68.7854 29.3451C69.0332 29.3264 69.3418 29.5087 69.6692 29.8033C70.0479 30.14 70.4501 30.631 70.8102 31.1127C71.058 31.44 71.2825 31.7674 71.4648 32.0433H71.4602Z" fill="url(#paint34_linear_31_24907)"/>
<g style="mix-blend-mode:screen" opacity="0.5">
<path d="M56.281 7.49294C55.5796 7.63323 57.2911 10.3174 60.6907 10.598C64.0903 10.8785 70.1554 9.13898 69.6223 8.53574C69.0892 7.93251 61.9112 6.38935 56.281 7.49762V7.49294Z" fill="#FF42A0"/>
</g>
<g style="mix-blend-mode:multiply" opacity="0.5">
<path d="M55.8646 7.39014C55.8646 7.39014 57.2207 11.0189 55.8646 12.6416C54.5085 14.2642 51.4408 14.0351 51.4408 14.0351L55.8646 7.39014Z" fill="#D651BE"/>
</g>
<path style="mix-blend-mode:multiply" d="M42.3082 15.2181C42.3082 15.2181 39.292 19.9084 43.6643 19.4594C48.2704 18.9825 55.8179 11.4584 55.8179 11.4584L42.3082 15.2181Z" fill="url(#paint35_linear_31_24907)"/>
<path d="M53.3911 13.8807C52.727 14.1426 44.1742 16.2235 42.5375 15.4051C40.9008 14.5868 40.6436 4.88826 47.9619 2.6951C55.2849 0.50194 59.1475 11.6174 53.3864 13.8807H53.3911Z" fill="url(#paint36_linear_31_24907)"/>
<path style="mix-blend-mode:screen" opacity="0.5" d="M46.185 6.02934C46.185 5.97791 48.1116 2.20885 51.4926 3.17683C54.8735 4.14482 55.1821 8.4797 55.1821 8.4797L46.185 6.03402V6.02934Z" fill="url(#paint37_linear_31_24907)"/>
<path style="mix-blend-mode:multiply" d="M50.8187 3.43868C52.8763 3.63509 53.8442 4.83221 53.8442 4.83221C53.8442 4.83221 52.7781 2.95703 49.9957 2.95703C48.6068 2.95703 47.7417 3.5743 47.2273 4.19156C45.6842 5.75343 43.968 9.03148 44.0194 11.5286C44.0709 14.0257 44.7115 14.9095 45.6327 15.1807C46.5493 15.4566 52.3806 14.1941 53.4514 13.1466C54.223 12.3937 47.9943 9.61133 46.3435 6.94587C46.1191 6.5858 46.395 5.80954 46.6989 5.1689C47.1058 4.58904 48.345 3.19552 50.8234 3.43401L50.8187 3.43868Z" fill="url(#paint38_linear_31_24907)"/>
<path d="M54.8923 11.7063C54.607 12.2768 54.0739 12.7585 53.4099 13.1606C51.0203 14.6103 46.8725 15.0358 45.9793 14.7319C45.5725 14.5916 45.2545 14.2829 45.0254 13.8481C44.1696 12.2488 44.4923 8.98476 45.8531 6.56246C45.8718 6.52505 47.2139 6.69807 48.8693 6.94591C49.3322 7.01606 49.8279 7.09088 50.3236 7.17037C52.0491 7.4416 53.8074 7.75023 54.6631 7.96534C54.8548 8.0121 54.9998 8.05418 55.0887 8.09159C55.1307 8.1103 55.1635 8.129 55.1775 8.13836C55.1775 8.13836 55.1915 8.15238 55.1915 8.16174C55.2523 8.55454 55.2897 8.94735 55.2991 9.32612C55.3271 10.224 55.2149 11.0563 54.8829 11.711L54.8923 11.7063Z" fill="url(#paint39_linear_31_24907)"/>
<path d="M55.3175 10.5512C55.2147 11.7997 54.4291 12.7397 53.4096 13.1605C52.1237 13.6936 50.4729 13.4177 49.346 11.9167C48.2424 10.4483 48.2471 8.47493 48.869 6.9458C49.3319 7.01594 49.8276 7.09076 50.3233 7.17026C52.0488 7.44148 53.8071 7.75012 54.6629 7.96522C54.8546 8.01199 54.9996 8.05407 55.0884 8.09148C55.1913 8.49364 55.2614 8.90982 55.2988 9.32601C55.3362 9.73752 55.3409 10.1537 55.3082 10.5559L55.3175 10.5512Z" fill="url(#paint40_linear_31_24907)"/>
<g style="mix-blend-mode:multiply">
<path d="M54.9059 10.0275C54.7422 12.0757 52.0394 12.9782 50.571 11.0188C49.7106 9.87784 49.7761 8.31129 50.3279 7.17029C52.0534 7.44151 53.8117 7.75014 54.6674 7.96525C54.8778 8.6246 54.962 9.34942 54.9059 10.0275Z" fill="#9A5EA3"/>
</g>
<g style="mix-blend-mode:multiply" opacity="0.75">
<path d="M55.1821 8.13836C55.1821 8.13836 48.1116 6.64663 46.1055 9.05958C44.0994 11.4725 45.0394 13.8761 45.0253 13.8481C44.1696 12.2488 44.4922 8.98476 45.853 6.56246C45.8717 6.52505 47.2138 6.69807 48.8692 6.94591C49.3321 7.01606 49.8278 7.09088 50.3235 7.17037C52.049 7.4416 53.8073 7.75023 54.6631 7.96534C54.8548 8.0121 54.9998 8.05418 55.0886 8.09159C55.1307 8.1103 55.1634 8.129 55.1775 8.13836H55.1821Z" fill="#C77FBF"/>
</g>
<path d="M48.7569 8.634C48.0929 8.50307 47.0595 9.33076 47.99 9.75162C48.9159 10.1725 49.5051 8.78364 48.7569 8.634Z" fill="white"/>
<g style="mix-blend-mode:soft-light" opacity="0.5">
<path d="M48.8829 10.4343C48.1534 10.7149 50.0847 13.2962 52.4462 13.1418C54.8077 12.9875 55.7055 10.8365 54.9199 10.4343C54.1296 10.0321 49.5422 10.1818 48.8829 10.4343Z" fill="#FFED7A"/>
</g>
<path d="M55.1821 8.13827C55.1821 8.13827 52.3203 7.44619 49.2994 7.17029C46.2786 6.88972 45.4368 7.17029 45.4368 7.17029C45.4368 7.17029 45.6052 6.06202 46.026 5.86562C46.4469 5.66922 53.9149 7.31525 55.1821 8.13827Z" fill="#440A21"/>
<path style="mix-blend-mode:screen" opacity="0.5" d="M48.7663 6.01057C48.2004 5.571 50.0522 3.27029 51.8619 3.73791C53.6716 4.20086 55.1166 7.27783 54.5461 7.31992C53.9756 7.36201 48.9954 6.19294 48.7663 6.01525V6.01057Z" fill="url(#paint41_linear_31_24907)"/>
<path d="M43.5473 10.1445C43.1077 10.0369 42.6915 10.8599 42.8505 11.3743C43.0095 11.8887 43.6736 12.3657 43.7437 11.9729C43.8138 11.5801 43.7156 10.1912 43.5473 10.1491V10.1445Z" fill="url(#paint42_linear_31_24907)"/>
<path d="M42.7807 8.61991C42.2617 8.75084 41.9671 10.2846 42.5563 10.2332C43.1455 10.1818 43.1408 8.52638 42.7807 8.61991Z" fill="url(#paint43_linear_31_24907)"/>
<path d="M43.767 8.39544C43.4677 8.33465 43.3461 8.82565 43.5191 8.98465C43.6968 9.14832 44.085 8.45623 43.767 8.39544Z" fill="url(#paint44_linear_31_24907)"/>
<path style="mix-blend-mode:multiply" d="M42.2286 8.39079C42.4484 8.32065 46.7552 3.8408 49.3692 3.60231C51.9833 3.36382 54.8545 4.96778 54.761 4.94907C54.6674 4.93037 51.3099 1.4793 48.5275 2.18073C45.7452 2.88217 42.2286 8.38611 42.2286 8.38611V8.39079Z" fill="url(#paint45_linear_31_24907)"/>
<path d="M54.8218 5.2016C54.8218 5.2016 54.8171 5.19692 54.8124 5.19225C54.8078 5.18757 54.8031 5.17822 54.7984 5.16886C54.7937 5.15951 54.789 5.15016 54.7797 5.13613C54.775 5.1221 54.7657 5.11275 54.7563 5.09404C54.5131 4.69656 53.4937 3.37786 50.4355 2.78398C46.8114 2.08254 42.8085 8.36742 42.224 8.47497C41.9855 8.51706 42.3643 7.23109 43.0563 5.64584C44.1459 3.14873 45.9977 -0.0825613 47.4099 0.0016111C49.1588 0.104489 50.2437 0.848012 50.6646 1.19405C50.702 1.22679 50.7347 1.25485 50.7581 1.27823C50.7441 1.2642 50.7254 1.24549 50.7067 1.22679C50.5991 1.11923 50.4542 0.955565 50.3139 0.759163C50.1876 0.586142 50.4027 0.347653 50.8376 0.254128C51.3193 0.151251 52.0721 0.226071 52.9139 0.759163C54.4617 1.7365 54.8031 4.99584 54.8218 5.19692V5.2016Z" fill="url(#paint46_linear_31_24907)"/>
<g style="mix-blend-mode:multiply">
<path d="M54.7612 5.09403C54.6443 4.90698 54.3684 4.52352 53.7886 4.10734C53.1245 3.62569 52.0771 3.10195 50.4404 2.78396C48.9253 2.48936 47.3447 3.41993 45.9746 4.6077C44.0667 6.25841 42.5703 8.41416 42.2289 8.47495C41.9904 8.51704 42.3692 7.23107 43.0613 5.64582C43.0613 5.64582 42.8882 6.52028 43.2904 6.56237C43.6879 6.60445 47.5084 1.01634 49.8839 1.64763C49.9821 1.67101 50.0756 1.69907 50.1692 1.72713C50.1785 1.73181 50.1879 1.73648 50.1972 1.73648C53.2134 2.64835 54.4853 4.60302 54.7612 5.09403Z" fill="#91CEF4"/>
</g>
<g style="mix-blend-mode:multiply" opacity="0.5">
<path d="M54.8218 5.20244C54.8218 5.20244 54.8168 5.19256 54.8119 5.18762C54.8119 5.19256 54.8168 5.1975 54.8218 5.1975V5.20244Z" fill="#91CEF4"/>
</g>
<g style="mix-blend-mode:multiply">
<path d="M53.7881 4.10734C53.1241 3.62569 52.0766 3.10195 50.4399 2.78397C48.9248 2.48936 47.3442 3.41994 45.9741 4.6077C46.5633 3.7613 48.4993 1.31095 49.8834 1.64764C49.9816 1.67102 50.0751 1.69908 50.1687 1.72713C50.178 1.73181 50.1874 1.73649 50.1967 1.73649C51.5435 2.16203 53.1334 3.24224 53.7881 4.10734Z" fill="#91CEF4"/>
</g>
<g style="mix-blend-mode:multiply">
<path d="M52.0254 2.12465C51.8898 2.0358 50.9218 1.37177 50.7067 1.22681C50.5991 1.11926 50.4542 0.955587 50.3139 0.759185C50.1876 0.586164 50.4027 0.347675 50.8376 0.25415C50.8376 0.25415 50.4588 0.342999 50.7394 0.805948C51.0013 1.23616 51.8991 2.01242 52.0254 2.12465Z" fill="#91CEF4"/>
</g>
<g style="mix-blend-mode:screen" opacity="0.5">
<path d="M47.045 0.0951662C46.1799 0.071785 43.809 5.6412 44.1457 5.49623C44.4824 5.35127 45.7356 3.78473 46.7784 2.88221C48.0364 1.802 49.5889 1.51207 49.3457 1.10524C49.1072 0.698402 48.3497 0.1279 47.045 0.0951662Z" fill="#525300"/>
</g>
<path style="mix-blend-mode:multiply" d="M41.9949 16.3124C41.9856 16.3451 41.2982 17.8602 42.7759 18.7253C44.2489 19.5904 48.4575 17.2196 48.4575 17.2196C48.4575 17.2196 45.2777 18.3886 43.7719 18.1034C42.2615 17.8181 41.9996 16.3124 41.9996 16.3124H41.9949Z" fill="url(#paint47_linear_31_24907)"/>
<g style="mix-blend-mode:multiply" opacity="0.5">
<path d="M53.8446 14.6055C51.3382 14.7271 42.7993 26.1746 45.9792 27.9702C49.1544 29.7659 55.472 27.3623 56.6504 25.258C57.8288 23.1537 58.1842 14.3951 53.8446 14.6055Z" fill="#D651BE"/>
</g>
<g style="mix-blend-mode:screen" opacity="0.5">
<path d="M59.5028 7.28722C58.5301 7.49297 61.8596 10.0743 64.9179 9.92462C67.9761 9.77498 69.6876 8.98937 68.8038 8.40016C67.92 7.81096 61.4528 6.87571 59.5028 7.28722Z" fill="#FF42A0"/>
</g>
<path style="mix-blend-mode:multiply" d="M57.5479 27.8815C56.912 27.8861 56.1497 27.7225 55.6681 27.4325C56.8325 26.7732 57.8472 25.8613 58.5066 24.5566C58.703 24.1732 58.89 23.7897 59.0771 23.4016C59.0864 23.598 59.0864 23.8084 59.0864 24.0282C58.5954 24.4257 56.8184 26.8012 57.5479 27.8815Z" fill="url(#paint48_linear_31_24907)"/>
<path style="mix-blend-mode:multiply" d="M61.6772 22.4804C61.0927 22.4944 60.3492 22.2513 59.8581 21.7182C60.611 20.0815 61.3218 18.4869 62.1027 17.0653C62.1448 17.2991 62.1869 17.547 62.229 17.7995C61.8502 18.3372 59.9096 21.2833 61.6725 22.4804H61.6772Z" fill="url(#paint49_linear_31_24907)"/>
<path style="mix-blend-mode:multiply" d="M65.7271 16.9482C64.8012 17.0511 63.7912 15.9709 63.4264 14.9749C64.4599 13.572 65.6617 12.5152 67.2002 12.0195C67.303 11.9867 67.4059 11.954 67.5088 11.9353C67.4854 12.1831 67.4574 12.459 67.4246 12.7536C67.3685 12.7396 62.9541 15.1432 65.7225 16.9529L65.7271 16.9482Z" fill="url(#paint50_linear_31_24907)"/>
<path style="mix-blend-mode:multiply" d="M72.0117 12.4451C71.965 12.576 71.9088 12.7303 71.848 12.8893C71.3009 12.5479 69.5473 11.7436 69.2106 13.544C68.8833 12.8987 68.6027 12.1972 68.4531 11.781C69.6549 11.6969 70.8801 11.9821 72.007 12.4451H72.0117Z" fill="url(#paint51_linear_31_24907)"/>
<path style="mix-blend-mode:multiply" d="M76.1738 15.176C76.0242 15.3911 75.8465 15.6389 75.6548 15.8681C75.622 15.5968 75.5145 15.2321 75.2152 14.886C74.7335 14.3249 73.9947 14.4418 73.7141 14.5494C73.6767 14.0771 73.6627 13.6141 73.658 13.2681C74.7569 13.9134 75.6454 14.6429 76.1738 15.1807V15.176Z" fill="url(#paint52_linear_31_24907)"/>
<path style="mix-blend-mode:multiply" d="M71.46 32.0433C70.2535 32.4922 68.8366 32.9318 67.1905 33.3106C67.2934 32.6559 67.5459 31.3653 67.9154 30.4347C68.1679 31.1127 68.9161 32.3145 70.8053 31.1127C71.0531 31.4401 71.2776 31.7674 71.46 32.0433Z" fill="url(#paint53_linear_31_24907)"/>
<path style="mix-blend-mode:multiply" d="M76.814 29.2468C76.4913 29.504 75.514 30.2288 73.7744 31.0612C73.8913 30.7058 74.0503 30.0698 74.2514 29.4292C74.387 29.5601 74.6068 29.6256 74.9388 29.5882C76.192 29.4385 76.4212 28.8306 76.4586 28.6108C76.5661 28.7885 76.6643 28.9709 76.7578 29.1533C76.7766 29.1813 76.7953 29.2188 76.8093 29.2468H76.814Z" fill="url(#paint54_linear_31_24907)"/>
<path d="M40.6762 25.8332C40.6061 26.9555 39.7176 27.7177 39.0349 28.1152C38.9834 26.848 39.0068 25.6087 39.1144 24.407C39.1798 23.6447 39.2827 22.8965 39.4137 22.1624C39.8252 22.7656 40.7651 24.3695 40.6762 25.8332Z" fill="url(#paint55_linear_31_24907)"/>
<path d="M41.0551 20.8062C40.2321 20.9138 40.2695 23.3314 41.2795 23.8271C42.2896 24.3181 43.2436 20.5257 41.0551 20.8062Z" fill="url(#paint56_linear_31_24907)"/>
<path d="M43.7252 22.9106C43.1781 22.7516 42.9396 23.626 43.2903 23.8365C43.6411 24.0469 44.2022 23.0508 43.7252 22.9106Z" fill="url(#paint57_linear_31_24907)"/>
<path d="M40.8956 27.3016C40.2409 27.166 40.0305 28.6951 40.3812 29.0037C40.7319 29.3124 41.7654 27.484 40.8956 27.3016Z" fill="url(#paint58_linear_31_24907)"/>
<path d="M42.3831 24.0796C42.0651 24.0095 41.9202 24.8372 42.2241 25.0897C42.5281 25.3422 42.9115 24.1965 42.3831 24.0796Z" fill="url(#paint59_linear_31_24907)"/>
<path style="mix-blend-mode:multiply" d="M62.8278 36.2753C61.7429 40.6289 76.4076 50.9073 64.9461 60.3439C62.8371 62.0788 60.7048 63.0234 58.6332 63.3882C61.4156 62.5605 65.0116 60.5731 66.9943 55.7939C70.5342 47.2551 62.8745 40.7084 62.2339 37.9868C61.7335 35.8685 62.3461 34.1289 63.0476 31.8142C63.6274 29.9156 61.8692 28.7652 61.1537 28.2321C62.0188 27.9282 63.1084 27.7785 64.4691 28.0591C68.1774 28.8167 70.0713 32.5249 70.0713 32.5249C70.0713 32.5249 68.7947 32.4969 67.186 33.3106C65.9235 33.9512 63.1832 34.8444 62.8231 36.2753H62.8278Z" fill="url(#paint60_linear_31_24907)"/>
<path style="mix-blend-mode:multiply" d="M50.3976 56.9349C44.9779 58.1133 43.762 52.7403 43.6498 52.7123C43.748 52.7216 43.8556 52.7777 43.9772 52.8666C44.4401 53.2033 45.0807 54.031 45.8243 54.5875C46.5678 55.1439 48.6815 55.2141 49.453 53.4745C49.8458 52.6 49.8926 51.2673 49.252 49.308C48.5786 47.2364 47.1991 45.2396 46.0347 43.2335C48.8311 47.1569 54.6063 56.0231 50.3976 56.9396V56.9349Z" fill="url(#paint61_linear_31_24907)"/>
<path style="mix-blend-mode:multiply" d="M58.7219 29.677C58.2309 30.14 57.2769 31.0846 56.1032 32.5108C54.3636 34.6198 53.6435 41.5126 53.6435 41.5126C53.6435 41.5126 53.3068 36.4015 54.3169 33.9558C55.3082 31.5662 56.5802 30.2148 55.1446 29.4011C56.5989 29.5835 57.9597 29.9155 58.4086 29.8313C58.4928 29.8126 58.6003 29.7612 58.7266 29.677H58.7219Z" fill="url(#paint62_linear_31_24907)"/>
<g style="mix-blend-mode:overlay" opacity="0.5">
<path d="M53.3203 34.7134C54.7513 33.9091 45.656 34.503 44.7675 36.7756C43.8837 39.0483 47.5078 48.6112 54.4567 50.1731C61.4056 51.7303 66.1894 47.3907 65.516 45.8569C64.8426 44.3231 61.9574 36.9487 61.2185 36.5465C60.4797 36.1443 55.6585 35.1577 55.3405 35.6206C55.0225 36.0836 56.3646 45.6512 54.7279 45.394C51.0337 44.8094 52.979 34.9051 53.3157 34.7134H53.3203Z" fill="#CF9799"/>
</g>
<g style="mix-blend-mode:multiply" opacity="0.5">
<path d="M49.4957 30.5703C48.191 31.4588 52.4464 33.1188 55.2474 33.4976C58.0485 33.8764 66.1571 29.476 64.137 28.6951C62.1168 27.9142 60.2417 30.2102 58.0064 30.084C55.7759 29.9577 52.8906 28.2509 49.4957 30.5703Z" fill="#D651BE"/>
</g>
<g style="mix-blend-mode:overlay" opacity="0.5">
<path d="M52.5773 34.6152C50.1503 33.5677 45.6471 35.6673 45.3758 36.9533C45.0999 38.2393 50.1269 42.2422 51.3521 39.6936C52.5773 37.145 53.5032 35.0174 52.5773 34.6199V34.6152Z" fill="#CF9799"/>
</g>
<g style="mix-blend-mode:overlay" opacity="0.5">
<path d="M55.6729 35.6674C55.2427 35.7609 55.584 37.898 56.9916 38.216C58.4038 38.534 61.5416 37.3322 60.8869 36.785C60.2322 36.2379 56.8139 35.4149 55.6682 35.6674H55.6729Z" fill="#CF9799"/>
</g>
<path style="mix-blend-mode:multiply" d="M49.4533 53.4745C49.4487 54.4705 48.7472 57.2015 47.1339 56.5374C45.3944 55.822 44.1926 53.9234 43.9821 52.8666C44.4451 53.2033 45.0857 54.031 45.8292 54.5874C46.5728 55.1439 48.6864 55.2141 49.458 53.4745H49.4533Z" fill="url(#paint63_linear_31_24907)"/>
<g style="mix-blend-mode:multiply" opacity="0.5">
<path d="M67.63 47.2832C65.9466 45.885 59.0397 51.8332 57.7959 53.3904C56.552 54.9476 51.857 62.0274 55.3736 62.8691C58.8901 63.7109 64.3052 61.7328 66.9379 57.6458C69.5706 53.5587 69.3509 48.7141 67.63 47.2832Z" fill="#D651BE"/>
</g>
<g style="mix-blend-mode:overlay" opacity="0.5">
<path d="M51.5346 34.4328C50.6134 34.3674 49.1404 35.5364 50.6648 35.7656C52.1893 35.9947 52.7785 34.5217 51.5346 34.4328Z" fill="#FFE8E9"/>
</g>
<g style="mix-blend-mode:overlay" opacity="0.5">
<path d="M49.5845 35.3588C49.1496 35.4289 48.6633 36.1257 49.1496 36.0415C49.6359 35.9573 49.9212 35.3026 49.5845 35.3588Z" fill="#FFE8E9"/>
</g>
<path style="mix-blend-mode:screen" d="M39.5771 30.1728C37.0746 30.1728 35.0458 28.1441 35.0458 25.6415C35.0458 23.139 37.0746 21.1102 39.5771 21.1102C42.0797 21.1102 44.1084 23.139 44.1084 25.6415C44.1084 28.1441 42.0797 30.1728 39.5771 30.1728Z" fill="url(#paint64_radial_31_24907)"/>
<path style="mix-blend-mode:screen" d="M42.3502 26.9275C41.0667 26.9275 40.0261 25.887 40.0261 24.6034C40.0261 23.3198 41.0667 22.2793 42.3502 22.2793C43.6338 22.2793 44.6743 23.3198 44.6743 24.6034C44.6743 25.887 43.6338 26.9275 42.3502 26.9275Z" fill="url(#paint65_radial_31_24907)"/>
<path style="mix-blend-mode:screen" d="M40.9336 24.2901C39.2911 24.2901 37.9595 22.9586 37.9595 21.316C37.9595 19.6735 39.2911 18.3419 40.9336 18.3419C42.5762 18.3419 43.9077 19.6735 43.9077 21.316C43.9077 22.9586 42.5762 24.2901 40.9336 24.2901Z" fill="url(#paint66_radial_31_24907)"/>
<path style="mix-blend-mode:screen" d="M43.4302 14.4326C41.7877 14.4326 40.4561 13.101 40.4561 11.4585C40.4561 9.81592 41.7877 8.48438 43.4302 8.48438C45.0727 8.48438 46.4043 9.81592 46.4043 11.4585C46.4043 13.101 45.0727 14.4326 43.4302 14.4326Z" fill="url(#paint67_radial_31_24907)"/>
<path style="mix-blend-mode:screen" d="M45.8525 8.60587C45.8525 7.45551 44.9173 6.52026 43.7669 6.52026C42.6166 6.52026 41.6813 7.45551 41.6813 8.60587C41.6813 9.75623 42.6166 10.6915 43.7669 10.6915C44.9173 10.6915 45.8525 9.75623 45.8525 8.60587Z" fill="url(#paint68_radial_31_24907)"/>
<defs>
<linearGradient id="paint0_linear_31_24907" x1="35.1678" y1="64.2626" x2="-32.3993" y2="46.0673" gradientUnits="userSpaceOnUse">
<stop stop-color="#117320"/>
<stop offset="0.46" stop-color="#288A30"/>
<stop offset="1" stop-color="#41A341"/>
</linearGradient>
<linearGradient id="paint1_linear_31_24907" x1="24.8798" y1="70.5241" x2="5.83812" y2="-54.6684" gradientUnits="userSpaceOnUse">
<stop stop-color="#117320"/>
<stop offset="0.46" stop-color="#288A30"/>
<stop offset="1" stop-color="#41A341"/>
</linearGradient>
<linearGradient id="paint2_linear_31_24907" x1="11.3376" y1="82.2147" x2="52.8299" y2="20.0347" gradientUnits="userSpaceOnUse">
<stop stop-color="#117320"/>
<stop offset="0.46" stop-color="#288A30"/>
<stop offset="1" stop-color="#41A341"/>
</linearGradient>
<linearGradient id="paint3_linear_31_24907" x1="22.9391" y1="22.7889" x2="35.5744" y2="90.356" gradientUnits="userSpaceOnUse">
<stop stop-color="#EEDBFE"/>
<stop offset="0.28" stop-color="#EDD8FB"/>
<stop offset="0.47" stop-color="#ECCFF5"/>
<stop offset="0.62" stop-color="#E9C0E9"/>
<stop offset="0.77" stop-color="#E5AAD9"/>
<stop offset="0.9" stop-color="#E18FC4"/>
<stop offset="1" stop-color="#DD76B1"/>
</linearGradient>
<linearGradient id="paint4_linear_31_24907" x1="60.6428" y1="11.041" x2="58.7014" y2="23.925" gradientUnits="userSpaceOnUse">
<stop stop-color="white"/>
<stop offset="1" stop-color="#5039AC"/>
</linearGradient>
<linearGradient id="paint5_linear_31_24907" x1="71.1665" y1="-6.44386" x2="53.3932" y2="22.5237" gradientUnits="userSpaceOnUse">
<stop stop-color="#FF0D7A"/>
<stop offset="1" stop-color="#360C8A"/>
</linearGradient>
<linearGradient id="paint6_linear_31_24907" x1="62.1717" y1="9.05984" x2="60.449" y2="4.39317" gradientUnits="userSpaceOnUse">
<stop/>
<stop offset="0.13" stop-color="#230C17"/>
<stop offset="0.56" stop-color="#983366"/>
<stop offset="0.86" stop-color="#E24D97"/>
<stop offset="1" stop-color="#FF57AB"/>
</linearGradient>
<linearGradient id="paint7_linear_31_24907" x1="59.2146" y1="3.53258" x2="68.5235" y2="18.0833" gradientUnits="userSpaceOnUse">
<stop stop-color="white"/>
<stop offset="1" stop-color="#6E0659"/>
</linearGradient>
<linearGradient id="paint8_linear_31_24907" x1="62.5427" y1="14.0659" x2="63.1862" y2="6.4772" gradientUnits="userSpaceOnUse">
<stop stop-color="#FFE7DB"/>
<stop offset="1" stop-color="#FFABC1"/>
</linearGradient>
<linearGradient id="paint9_linear_31_24907" x1="60.3266" y1="7.12545" x2="61.5506" y2="15.0803" gradientUnits="userSpaceOnUse">
<stop stop-color="#560524"/>
<stop offset="1" stop-color="#B23600"/>
</linearGradient>
<linearGradient id="paint10_linear_31_24907" x1="46.8742" y1="14.5094" x2="67.2185" y2="2.14661" gradientUnits="userSpaceOnUse">
<stop stop-color="white"/>
<stop offset="1" stop-color="#5039AC"/>
</linearGradient>
<linearGradient id="paint11_linear_31_24907" x1="56.389" y1="12.3847" x2="70.7997" y2="-7.65918" gradientUnits="userSpaceOnUse">
<stop stop-color="#117320"/>
<stop offset="0.46" stop-color="#288A30"/>
<stop offset="1" stop-color="#41A341"/>
</linearGradient>
<linearGradient id="paint12_linear_31_24907" x1="60.5457" y1="19.9925" x2="61.0929" y2="2.9336" gradientUnits="userSpaceOnUse">
<stop stop-color="white"/>
<stop offset="1" stop-color="#FF94F6"/>
</linearGradient>
<linearGradient id="paint13_linear_31_24907" x1="72.3718" y1="0.328957" x2="43.0517" y2="57.3651" gradientUnits="userSpaceOnUse">
<stop stop-color="#FF0D7A"/>
<stop offset="1" stop-color="#360C8A"/>
</linearGradient>
<linearGradient id="paint14_linear_31_24907" x1="37.0941" y1="-22.0281" x2="69.6127" y2="90.5244" gradientUnits="userSpaceOnUse">
<stop stop-color="white"/>
<stop offset="1" stop-color="#5039AC"/>
</linearGradient>
<linearGradient id="paint15_linear_31_24907" x1="62.9304" y1="35.9713" x2="63.4027" y2="10.467" gradientUnits="userSpaceOnUse">
<stop stop-color="#CF1BBF"/>
<stop offset="1" stop-color="#AB009D"/>
</linearGradient>
<linearGradient id="paint16_linear_31_24907" x1="60.9993" y1="14.5914" x2="76.7535" y2="14.5914" gradientUnits="userSpaceOnUse">
<stop stop-color="#CF1BBF"/>
<stop offset="1" stop-color="#AB009D"/>
</linearGradient>
<linearGradient id="paint17_linear_31_24907" x1="67.7515" y1="26.4318" x2="68.3407" y2="30.5048" gradientUnits="userSpaceOnUse">
<stop stop-color="#FFE7DB"/>
<stop offset="1" stop-color="#FFABC1"/>
</linearGradient>
<linearGradient id="paint18_linear_31_24907" x1="67.7515" y1="26.4318" x2="68.3407" y2="30.5048" gradientUnits="userSpaceOnUse">
<stop stop-color="#EEDBFE"/>
<stop offset="0.26" stop-color="#EBD8FB"/>
<stop offset="0.43" stop-color="#E3CFF5"/>
<stop offset="0.58" stop-color="#D6C0EA"/>
<stop offset="0.72" stop-color="#C3AADA"/>
<stop offset="0.84" stop-color="#AB8FC6"/>
<stop offset="0.96" stop-color="#8D6DAD"/>
<stop offset="1" stop-color="#815FA3"/>
</linearGradient>
<linearGradient id="paint19_linear_31_24907" x1="58.1746" y1="29.5135" x2="56.8699" y2="22.8124" gradientUnits="userSpaceOnUse">
<stop stop-color="#FFE7DB"/>
<stop offset="1" stop-color="#FFABC1"/>
</linearGradient>
<linearGradient id="paint20_linear_31_24907" x1="64.0196" y1="31.6177" x2="60.1243" y2="35.6159" gradientUnits="userSpaceOnUse">
<stop stop-color="#FFE7DB"/>
<stop offset="1" stop-color="#FFABC1"/>
</linearGradient>
<linearGradient id="paint21_linear_31_24907" x1="61.8457" y1="24.1872" x2="60.7093" y2="17.8509" gradientUnits="userSpaceOnUse">
<stop stop-color="#FFE7DB"/>
<stop offset="1" stop-color="#FFABC1"/>
</linearGradient>
<linearGradient id="paint22_linear_31_24907" x1="65.451" y1="19.9551" x2="65.4743" y2="11.6781" gradientUnits="userSpaceOnUse">
<stop stop-color="#FFE7DB"/>
<stop offset="1" stop-color="#FFABC1"/>
</linearGradient>
<linearGradient id="paint23_linear_31_24907" x1="70.1786" y1="16.579" x2="70.2628" y2="10.2613" gradientUnits="userSpaceOnUse">
<stop stop-color="#FFE7DB"/>
<stop offset="1" stop-color="#FFABC1"/>
</linearGradient>
<linearGradient id="paint24_linear_31_24907" x1="74.7148" y1="18.7253" x2="75.0281" y2="11.7109" gradientUnits="userSpaceOnUse">
<stop stop-color="#FFE7DB"/>
<stop offset="1" stop-color="#FFABC1"/>
</linearGradient>
<linearGradient id="paint25_linear_31_24907" x1="67.3637" y1="25.7116" x2="67.0411" y2="21.0634" gradientUnits="userSpaceOnUse">
<stop stop-color="#FFE7DB"/>
<stop offset="1" stop-color="#FFABC1"/>
</linearGradient>
<linearGradient id="paint26_linear_31_24907" x1="70.9688" y1="24.4818" x2="69.8044" y2="19.0995" gradientUnits="userSpaceOnUse">
<stop stop-color="#FFE7DB"/>
<stop offset="1" stop-color="#FFABC1"/>
</linearGradient>
<linearGradient id="paint27_linear_31_24907" x1="74.0178" y1="23.1584" x2="73.12" y2="17.4581" gradientUnits="userSpaceOnUse">
<stop stop-color="#FFE7DB"/>
<stop offset="1" stop-color="#FFABC1"/>
</linearGradient>
<linearGradient id="paint28_linear_31_24907" x1="67.3637" y1="25.7116" x2="67.0411" y2="21.0634" gradientUnits="userSpaceOnUse">
<stop stop-color="#EEDBFE"/>
<stop offset="0.26" stop-color="#EBD8FB"/>
<stop offset="0.43" stop-color="#E3CFF5"/>
<stop offset="0.58" stop-color="#D6C0EA"/>
<stop offset="0.72" stop-color="#C3AADA"/>
<stop offset="0.84" stop-color="#AB8FC6"/>
<stop offset="0.96" stop-color="#8D6DAD"/>
<stop offset="1" stop-color="#815FA3"/>
</linearGradient>
<linearGradient id="paint29_linear_31_24907" x1="70.9688" y1="24.4818" x2="69.8044" y2="19.0995" gradientUnits="userSpaceOnUse">
<stop stop-color="#EEDBFE"/>
<stop offset="0.26" stop-color="#EBD8FB"/>
<stop offset="0.43" stop-color="#E3CFF5"/>
<stop offset="0.58" stop-color="#D6C0EA"/>
<stop offset="0.72" stop-color="#C3AADA"/>
<stop offset="0.84" stop-color="#AB8FC6"/>
<stop offset="0.96" stop-color="#8D6DAD"/>
<stop offset="1" stop-color="#815FA3"/>
</linearGradient>
<linearGradient id="paint30_linear_31_24907" x1="74.0178" y1="23.1584" x2="73.12" y2="17.4581" gradientUnits="userSpaceOnUse">
<stop stop-color="#EEDBFE"/>
<stop offset="0.26" stop-color="#EBD8FB"/>
<stop offset="0.43" stop-color="#E3CFF5"/>
<stop offset="0.58" stop-color="#D6C0EA"/>
<stop offset="0.72" stop-color="#C3AADA"/>
<stop offset="0.84" stop-color="#AB8FC6"/>
<stop offset="0.96" stop-color="#8D6DAD"/>
<stop offset="1" stop-color="#815FA3"/>
</linearGradient>
<linearGradient id="paint31_linear_31_24907" x1="76.7345" y1="27.6475" x2="72.5726" y2="31.9123" gradientUnits="userSpaceOnUse">
<stop stop-color="#FFE7DB"/>
<stop offset="1" stop-color="#FFABC1"/>
</linearGradient>
<linearGradient id="paint32_linear_31_24907" x1="67.5878" y1="58.1694" x2="58.9929" y2="21.8865" gradientUnits="userSpaceOnUse">
<stop stop-color="white"/>
<stop offset="1" stop-color="#5039AC"/>
</linearGradient>
<linearGradient id="paint33_linear_31_24907" x1="53.3256" y1="69.5374" x2="59.8958" y2="22.0174" gradientUnits="userSpaceOnUse">
<stop stop-color="#FF1C1C"/>
<stop offset="1" stop-color="#8A0C61"/>
</linearGradient>
<linearGradient id="paint34_linear_31_24907" x1="70.8569" y1="29.8595" x2="66.2134" y2="34.6199" gradientUnits="userSpaceOnUse">
<stop stop-color="#FFE7DB"/>
<stop offset="1" stop-color="#FFABC1"/>
</linearGradient>
<linearGradient id="paint35_linear_31_24907" x1="48.8035" y1="10.6821" x2="47.9992" y2="23.6821" gradientUnits="userSpaceOnUse">
<stop stop-color="white"/>
<stop offset="1" stop-color="#5039AC"/>
</linearGradient>
<linearGradient id="paint36_linear_31_24907" x1="57.754" y1="-7.66279" x2="42.5889" y2="22.7515" gradientUnits="userSpaceOnUse">
<stop stop-color="#FF0D7A"/>
<stop offset="1" stop-color="#360C8A"/>
</linearGradient>
<linearGradient id="paint37_linear_31_24907" x1="50.3609" y1="8.952" x2="51.2868" y2="4.06532" gradientUnits="userSpaceOnUse">
<stop/>
<stop offset="0.13" stop-color="#230C17"/>
<stop offset="0.56" stop-color="#983366"/>
<stop offset="0.86" stop-color="#E24D97"/>
<stop offset="1" stop-color="#FF57AB"/>
</linearGradient>
<linearGradient id="paint38_linear_31_24907" x1="52.3619" y1="3.01782" x2="45.5813" y2="18.8984" gradientUnits="userSpaceOnUse">
<stop stop-color="white"/>
<stop offset="1" stop-color="#6E0659"/>
</linearGradient>
<linearGradient id="paint39_linear_31_24907" x1="50.8192" y1="13.9556" x2="48.9347" y2="6.57181" gradientUnits="userSpaceOnUse">
<stop stop-color="#FFE7DB"/>
<stop offset="1" stop-color="#FFABC1"/>
</linearGradient>
<linearGradient id="paint40_linear_31_24907" x1="51.8618" y1="6.74005" x2="51.9647" y2="14.7925" gradientUnits="userSpaceOnUse">
<stop stop-color="#560524"/>
<stop offset="1" stop-color="#B23600"/>
</linearGradient>
<linearGradient id="paint41_linear_31_24907" x1="48.6634" y1="5.49618" x2="54.677" y2="5.49618" gradientUnits="userSpaceOnUse">
<stop/>
<stop offset="0.13" stop-color="#230C17"/>
<stop offset="0.56" stop-color="#983366"/>
<stop offset="0.86" stop-color="#E24D97"/>
<stop offset="1" stop-color="#FF57AB"/>
</linearGradient>
<linearGradient id="paint42_linear_31_24907" x1="43.2901" y1="12.1132" x2="43.2901" y2="10.1351" gradientUnits="userSpaceOnUse">
<stop stop-color="#FFD52E"/>
<stop offset="1" stop-color="#EA5B14"/>
</linearGradient>
<linearGradient id="paint43_linear_31_24907" x1="42.6311" y1="10.2379" x2="42.6311" y2="8.61523" gradientUnits="userSpaceOnUse">
<stop stop-color="#FFD52E"/>
<stop offset="1" stop-color="#EA5B14"/>
</linearGradient>
<linearGradient id="paint44_linear_31_24907" x1="43.6594" y1="9.00803" x2="43.6594" y2="8.39076" gradientUnits="userSpaceOnUse">
<stop stop-color="#FFD52E"/>
<stop offset="1" stop-color="#EA5B14"/>
</linearGradient>
<linearGradient id="paint45_linear_31_24907" x1="35.3919" y1="15.3397" x2="54.5739" y2="1.24081" gradientUnits="userSpaceOnUse">
<stop stop-color="white"/>
<stop offset="1" stop-color="#5039AC"/>
</linearGradient>
<linearGradient id="paint46_linear_31_24907" x1="44.6884" y1="12.389" x2="57.2815" y2="-8.84117" gradientUnits="userSpaceOnUse">
<stop stop-color="#117320"/>
<stop offset="0.46" stop-color="#288A30"/>
<stop offset="1" stop-color="#41A341"/>
</linearGradient>
<linearGradient id="paint47_linear_31_24907" x1="32.4928" y1="21.7368" x2="57.6838" y2="12.0944" gradientUnits="userSpaceOnUse">
<stop stop-color="white"/>
<stop offset="1" stop-color="#5039AC"/>
</linearGradient>
<linearGradient id="paint48_linear_31_24907" x1="58.0436" y1="32.8383" x2="57.0008" y2="21.2646" gradientUnits="userSpaceOnUse">
<stop stop-color="#EEDBFE"/>
<stop offset="0.25" stop-color="#EDD8FC"/>
<stop offset="0.41" stop-color="#EDCFF7"/>
<stop offset="0.55" stop-color="#EBC0EE"/>
<stop offset="0.68" stop-color="#EAAAE1"/>
<stop offset="0.8" stop-color="#E88FD1"/>
<stop offset="0.91" stop-color="#E56DBD"/>
<stop offset="1" stop-color="#E34BA9"/>
</linearGradient>
<linearGradient id="paint49_linear_31_24907" x1="61.4948" y1="27.1239" x2="60.8215" y2="15.9757" gradientUnits="userSpaceOnUse">
<stop stop-color="#EEDBFE"/>
<stop offset="0.25" stop-color="#EDD8FC"/>
<stop offset="0.41" stop-color="#EDCFF7"/>
<stop offset="0.55" stop-color="#EBC0EE"/>
<stop offset="0.68" stop-color="#EAAAE1"/>
<stop offset="0.8" stop-color="#E88FD1"/>
<stop offset="0.91" stop-color="#E56DBD"/>
<stop offset="1" stop-color="#E34BA9"/>
</linearGradient>
<linearGradient id="paint50_linear_31_24907" x1="68.7059" y1="19.4641" x2="63.0897" y2="9.1015" gradientUnits="userSpaceOnUse">
<stop stop-color="#EEDBFE"/>
<stop offset="0.25" stop-color="#EDD8FC"/>
<stop offset="0.41" stop-color="#EDCFF7"/>
<stop offset="0.55" stop-color="#EBC0EE"/>
<stop offset="0.68" stop-color="#EAAAE1"/>
<stop offset="0.8" stop-color="#E88FD1"/>
<stop offset="0.91" stop-color="#E56DBD"/>
<stop offset="1" stop-color="#E34BA9"/>
</linearGradient>
<linearGradient id="paint51_linear_31_24907" x1="70.8052" y1="18.0332" x2="69.9074" y2="8.68069" gradientUnits="userSpaceOnUse">
<stop stop-color="#EEDBFE"/>
<stop offset="0.25" stop-color="#EDD8FC"/>
<stop offset="0.41" stop-color="#EDCFF7"/>
<stop offset="0.55" stop-color="#EBC0EE"/>
<stop offset="0.68" stop-color="#EAAAE1"/>
<stop offset="0.8" stop-color="#E88FD1"/>
<stop offset="0.91" stop-color="#E56DBD"/>
<stop offset="1" stop-color="#E34BA9"/>
</linearGradient>
<linearGradient id="paint52_linear_31_24907" x1="74.0648" y1="19.9832" x2="75.4958" y2="10.294" gradientUnits="userSpaceOnUse">
<stop stop-color="#EEDBFE"/>
<stop offset="0.25" stop-color="#EDD8FC"/>
<stop offset="0.41" stop-color="#EDCFF7"/>
<stop offset="0.55" stop-color="#EBC0EE"/>
<stop offset="0.68" stop-color="#EAAAE1"/>
<stop offset="0.8" stop-color="#E88FD1"/>
<stop offset="0.91" stop-color="#E56DBD"/>
<stop offset="1" stop-color="#E34BA9"/>
</linearGradient>
<linearGradient id="paint53_linear_31_24907" x1="68.8646" y1="29.4994" x2="69.4351" y2="33.4275" gradientUnits="userSpaceOnUse">
<stop stop-color="#EEDBFE"/>
<stop offset="0.25" stop-color="#EDD8FC"/>
<stop offset="0.41" stop-color="#EDCFF7"/>
<stop offset="0.55" stop-color="#EBC0EE"/>
<stop offset="0.68" stop-color="#EAAAE1"/>
<stop offset="0.8" stop-color="#E88FD1"/>
<stop offset="0.91" stop-color="#E56DBD"/>
<stop offset="1" stop-color="#E34BA9"/>
</linearGradient>
<linearGradient id="paint54_linear_31_24907" x1="75.0183" y1="28.2274" x2="75.4438" y2="31.1547" gradientUnits="userSpaceOnUse">
<stop stop-color="#EEDBFE"/>
<stop offset="0.25" stop-color="#EDD8FC"/>
<stop offset="0.41" stop-color="#EDCFF7"/>
<stop offset="0.55" stop-color="#EBC0EE"/>
<stop offset="0.68" stop-color="#EAAAE1"/>
<stop offset="0.8" stop-color="#E88FD1"/>
<stop offset="0.91" stop-color="#E56DBD"/>
<stop offset="1" stop-color="#E34BA9"/>
</linearGradient>
<linearGradient id="paint55_linear_31_24907" x1="39.8439" y1="28.1152" x2="39.8439" y2="22.1624" gradientUnits="userSpaceOnUse">
<stop stop-color="#FFD52E"/>
<stop offset="1" stop-color="#EA5B14"/>
</linearGradient>
<linearGradient id="paint56_linear_31_24907" x1="41.4292" y1="23.8692" x2="41.4292" y2="20.7922" gradientUnits="userSpaceOnUse">
<stop stop-color="#FFD52E"/>
<stop offset="1" stop-color="#EA5B14"/>
</linearGradient>
<linearGradient id="paint57_linear_31_24907" x1="43.5148" y1="23.8692" x2="43.5148" y2="22.8919" gradientUnits="userSpaceOnUse">
<stop stop-color="#FFD52E"/>
<stop offset="1" stop-color="#EA5B14"/>
</linearGradient>
<linearGradient id="paint58_linear_31_24907" x1="40.7272" y1="29.0411" x2="40.7272" y2="27.2922" gradientUnits="userSpaceOnUse">
<stop stop-color="#FFD52E"/>
<stop offset="1" stop-color="#EA5B14"/>
</linearGradient>
<linearGradient id="paint59_linear_31_24907" x1="42.3504" y1="25.1271" x2="42.3504" y2="24.075" gradientUnits="userSpaceOnUse">
<stop stop-color="#FFD52E"/>
<stop offset="1" stop-color="#EA5B14"/>
</linearGradient>
<linearGradient id="paint60_linear_31_24907" x1="61.1911" y1="69.9443" x2="67.6583" y2="23.1771" gradientUnits="userSpaceOnUse">
<stop stop-color="white"/>
<stop offset="1" stop-color="#BD44CF"/>
</linearGradient>
<linearGradient id="paint61_linear_31_24907" x1="47.1944" y1="82.037" x2="48.0922" y2="38.0055" gradientUnits="userSpaceOnUse">
<stop stop-color="white"/>
<stop offset="1" stop-color="#BD44CF"/>
</linearGradient>
<linearGradient id="paint62_linear_31_24907" x1="54.7471" y1="43.8133" x2="56.9917" y2="27.5961" gradientUnits="userSpaceOnUse">
<stop stop-color="white"/>
<stop offset="1" stop-color="#BD44CF"/>
</linearGradient>
<linearGradient id="paint63_linear_31_24907" x1="43.9821" y1="54.7511" x2="49.4533" y2="54.7511" gradientUnits="userSpaceOnUse">
<stop stop-color="white"/>
<stop offset="1" stop-color="#BD44CF"/>
</linearGradient>
<radialGradient id="paint64_radial_31_24907" cx="0" cy="0" r="1" gradientUnits="userSpaceOnUse" gradientTransform="translate(39.5771 25.6415) rotate(180) scale(4.53128 4.53128)">
<stop stop-color="#FF2600"/>
<stop offset="0.22" stop-color="#B31A00"/>
<stop offset="0.43" stop-color="#731100"/>
<stop offset="0.62" stop-color="#410900"/>
<stop offset="0.78" stop-color="#1D0400"/>
<stop offset="0.91" stop-color="#070100"/>
<stop offset="1"/>
</radialGradient>
<radialGradient id="paint65_radial_31_24907" cx="0" cy="0" r="1" gradientUnits="userSpaceOnUse" gradientTransform="translate(42.3502 24.6034) rotate(180) scale(2.3241)">
<stop stop-color="#FF2600"/>
<stop offset="0.22" stop-color="#B31A00"/>
<stop offset="0.43" stop-color="#731100"/>
<stop offset="0.62" stop-color="#410900"/>
<stop offset="0.78" stop-color="#1D0400"/>
<stop offset="0.91" stop-color="#070100"/>
<stop offset="1"/>
</radialGradient>
<radialGradient id="paint66_radial_31_24907" cx="0" cy="0" r="1" gradientUnits="userSpaceOnUse" gradientTransform="translate(40.9336 21.316) rotate(180) scale(2.97409)">
<stop stop-color="#FF2600"/>
<stop offset="0.22" stop-color="#B31A00"/>
<stop offset="0.43" stop-color="#731100"/>
<stop offset="0.62" stop-color="#410900"/>
<stop offset="0.78" stop-color="#1D0400"/>
<stop offset="0.91" stop-color="#070100"/>
<stop offset="1"/>
</radialGradient>
<radialGradient id="paint67_radial_31_24907" cx="0" cy="0" r="1" gradientUnits="userSpaceOnUse" gradientTransform="translate(43.4302 11.4585) rotate(180) scale(2.97409)">
<stop stop-color="#FF2600"/>
<stop offset="0.22" stop-color="#B31A00"/>
<stop offset="0.43" stop-color="#731100"/>
<stop offset="0.62" stop-color="#410900"/>
<stop offset="0.78" stop-color="#1D0400"/>
<stop offset="0.91" stop-color="#070100"/>
<stop offset="1"/>
</radialGradient>
<radialGradient id="paint68_radial_31_24907" cx="0" cy="0" r="1" gradientUnits="userSpaceOnUse" gradientTransform="translate(43.7669 8.60587) rotate(180) scale(2.08561)">
<stop stop-color="#FF2600"/>
<stop offset="0.22" stop-color="#B31A00"/>
<stop offset="0.43" stop-color="#731100"/>
<stop offset="0.62" stop-color="#410900"/>
<stop offset="0.78" stop-color="#1D0400"/>
<stop offset="0.91" stop-color="#070100"/>
<stop offset="1"/>
</radialGradient>
</defs>
</svg>
